<?xml version="1.0" encoding="UTF-8" standalone="no"?>
<svg
   xmlns:dc="http://purl.org/dc/elements/1.1/"
   xmlns:cc="http://creativecommons.org/ns#"
   xmlns:rdf="http://www.w3.org/1999/02/22-rdf-syntax-ns#"
   xmlns:svg="http://www.w3.org/2000/svg"
   xmlns="http://www.w3.org/2000/svg"
   xmlns:sodipodi="http://sodipodi.sourceforge.net/DTD/sodipodi-0.dtd"
   xmlns:inkscape="http://www.inkscape.org/namespaces/inkscape"
   sodipodi:docname="turtle-tree-logo.svg"
   inkscape:version="1.0 (4035a4f, 2020-05-01)"
   id="svg8"
   version="1.1"
   viewBox="0 0 25.028285 34.099199"
   height="128.87886"
   width="94.595093">
  <defs
     id="defs2" />
  <sodipodi:namedview
     units="px"
     inkscape:document-rotation="0"
     inkscape:window-maximized="1"
     inkscape:window-y="23"
     inkscape:window-x="0"
     inkscape:window-height="1035"
     inkscape:window-width="1920"
     showgrid="false"
     inkscape:current-layer="layer1"
     inkscape:document-units="mm"
     inkscape:cy="66.348914"
     inkscape:cx="-131.08657"
     inkscape:zoom="0.7"
     inkscape:pageshadow="2"
     inkscape:pageopacity="0.0"
     borderopacity="1.0"
     bordercolor="#666666"
     pagecolor="#ffffff"
     id="base" />
  <metadata
     id="metadata5">
    <rdf:RDF>
      <cc:Work
         rdf:about="">
        <dc:format>image/svg+xml</dc:format>
        <dc:type
           rdf:resource="http://purl.org/dc/dcmitype/StillImage" />
        <dc:title></dc:title>
      </cc:Work>
    </rdf:RDF>
  </metadata>
  <g
     transform="translate(-82.754751,-127.36928)"
     id="layer1"
     inkscape:groupmode="layer"
     inkscape:label="Layer 1">
    <path
       inkscape:export-ydpi="17.531469"
       inkscape:export-xdpi="17.531469"
       style="stroke-width:0.0483534"
       inkscape:connector-curvature="0"
       d="m 90.556735,156.4686 c 0.516074,-0.84923 0.933905,-1.75389 1.35265,-2.65367 0.691085,-1.49246 1.26498,-3.03338 1.814724,-4.58209 0.59688,-1.67866 1.034818,-3.40689 1.417618,-5.14503 0.239137,-1.13946 0.468541,-2.28148 0.757872,-3.40954 0.124549,-0.37599 0.160878,-0.79053 0.344759,-1.14652 0.02123,-0.0411 0.04774,-0.0793 0.07162,-0.11888 0.06701,-0.0906 0.03751,-0.0513 0.08815,-0.11823 0.312418,-0.41327 0.896866,0.0286 0.584445,0.44182 v 0 c -0.03971,0.0525 -0.02105,0.0288 -0.05553,0.0714 -0.05247,0.0648 -0.07956,0.15432 -0.10376,0.23207 -0.08417,0.27041 -0.141729,0.54847 -0.220031,0.8205 -0.287676,1.11979 -0.51396,2.25392 -0.752019,3.38501 -0.389578,1.76772 -0.835473,3.52526 -1.442676,5.2325 -0.55755,1.57043 -1.139994,3.13282 -1.840941,4.64616 -0.430521,0.92472 -0.860709,1.85405 -1.391711,2.72654 -0.270146,0.44206 -0.895311,0.06 -0.625164,-0.38205 z"
       id="path3719" />
    <path
       inkscape:export-ydpi="17.531469"
       inkscape:export-xdpi="17.531469"
       style="stroke-width:0.0483534"
       inkscape:connector-curvature="0"
       d="m 93.291536,144.11588 c -0.269994,0.38609 -0.549339,0.76687 -0.883209,1.10116 -0.10969,0.10982 -0.225768,0.21307 -0.338652,0.31961 -0.416862,0.36631 -0.89633,0.64877 -1.409556,0.8576 -0.270997,0.11026 -0.590839,0.21433 -0.887218,0.22909 -0.144617,0.007 -0.288834,-0.0209 -0.433252,-0.0314 -0.136731,-0.0524 -0.281028,-0.0883 -0.410196,-0.15735 -0.336163,-0.1796 -0.666751,-0.53142 -0.829923,-0.87505 -0.187465,-0.39478 -0.20478,-0.62944 -0.288571,-1.05672 -0.125204,-0.98648 -0.03053,-1.99007 0.231091,-2.94804 0.04777,-0.17491 0.109193,-0.34581 0.163789,-0.5187 0.190229,-0.52797 0.405629,-1.05348 0.712197,-1.52632 0.176586,-0.27235 0.236674,-0.32969 0.440659,-0.5735 0.07649,-0.0736 0.147585,-0.1533 0.229456,-0.22089 0.309596,-0.25557 0.71935,-0.42032 1.067929,-0.11212 0.07897,0.0698 0.120569,0.17295 0.180853,0.25942 0.02958,0.0897 0.06662,0.17728 0.08873,0.26909 0.02234,0.0928 0.03317,0.18807 0.04419,0.28285 0.03867,0.33272 0.02657,0.65981 -0.01033,0.9915 -0.06512,0.36093 -0.179834,0.84454 -0.59985,0.94957 -0.100548,0.0251 -0.207247,0.004 -0.310871,0.006 -0.09298,-0.038 -0.190936,-0.0656 -0.27893,-0.11397 -0.08932,-0.0492 -0.169884,-0.11322 -0.249539,-0.17686 -0.38309,-0.30604 -0.689471,-0.69588 -0.991108,-1.07836 -0.337226,-0.46311 -0.577147,-0.98696 -0.638773,-1.56142 -0.04417,-0.41176 -0.0074,-0.53685 0.03816,-0.94779 0.09402,-0.57594 0.304755,-1.11705 0.609244,-1.61337 0.151752,-0.24736 0.234691,-0.34558 0.406606,-0.57195 0.241262,-0.28544 0.50544,-0.55245 0.80353,-0.7788 0.14793,-0.11233 0.260909,-0.18295 0.414835,-0.28403 0.424604,-0.25754 0.888721,-0.43378 1.369196,-0.55228 0.238968,-0.0455 0.491497,-0.0978 0.73491,-0.0479 0.171447,0.0351 0.212975,0.0684 0.361175,0.14469 0.288816,0.18973 0.410178,0.41943 0.476825,0.74826 0.03046,0.2656 -0.03733,0.53093 -0.205953,0.74119 -0.03542,0.0442 -0.07824,0.0818 -0.117354,0.12275 -0.363473,0.323 -0.80287,0.29024 -1.254778,0.24435 -0.435164,-0.0576 -0.871711,-0.16456 -1.240561,-0.41383 -0.09729,-0.0658 -0.184926,-0.14475 -0.277389,-0.21713 -0.40329,-0.39082 -0.652568,-0.80362 -0.735251,-1.36612 -0.04716,-0.32084 -0.02006,-0.43935 0.0053,-0.75684 0.02644,-0.11974 0.04268,-0.2422 0.07931,-0.35923 0.120432,-0.38468 0.362552,-0.81826 0.605709,-1.13876 0.249796,-0.32926 0.435551,-0.49971 0.725048,-0.79503 0.542561,-0.52854 1.142944,-1.01371 1.824112,-1.35419 0.54677,-0.2733 0.720066,-0.30127 1.307346,-0.48542 0.575742,-0.15447 1.163701,-0.26514 1.760983,-0.27941 0.220232,-0.005 0.574005,0.009 0.798659,0.0596 0.105327,0.0238 0.204878,0.0684 0.307317,0.10252 0.08177,0.0523 0.17195,0.0934 0.245312,0.15694 0.264567,0.22923 0.321406,0.52001 0.238871,0.85148 -0.06396,0.25684 -0.17109,0.37503 -0.316094,0.5945 -0.34138,0.42771 -0.759634,0.78961 -1.262798,1.01324 -0.09778,0.0435 -0.199907,0.0764 -0.299861,0.11455 -0.376071,0.10643 -0.778141,0.15782 -1.159102,0.0393 -0.07853,-0.0244 -0.157185,-0.053 -0.227175,-0.0962 -0.07736,-0.0477 -0.140175,-0.11576 -0.210263,-0.17363 -0.04603,-0.0727 -0.103338,-0.13927 -0.138101,-0.21793 -0.06686,-0.15128 -0.09578,-0.36564 -0.05205,-0.52648 0.122537,-0.45072 0.45494,-0.75236 0.770754,-1.06894 0.564421,-0.47412 1.172626,-0.91431 1.854612,-1.20545 0.67575,-0.28849 0.877092,-0.30863 1.606589,-0.4955 1.144914,-0.22592 2.350955,-0.38434 3.499325,-0.0825 0.13013,0.0342 0.25479,0.0866 0.38219,0.12986 0.26894,0.15771 0.41264,0.18676 0.54319,0.50936 0.10274,0.25387 0.0598,0.51793 -0.0304,0.76334 -0.1005,0.27367 -0.22094,0.39916 -0.39289,0.62832 -0.32169,0.36664 -0.72151,0.64993 -1.16833,0.84433 -0.22729,0.0989 -0.34409,0.1252 -0.574844,0.1917 -0.390004,0.0978 -1.000689,0.1884 -0.99618,-0.43907 7.35e-4,-0.11044 0.101852,-0.19601 0.152778,-0.29402 0.06945,-0.0546 0.134773,-0.11483 0.208338,-0.16371 0.318661,-0.21176 0.735768,-0.3237 1.102878,-0.41584 0.59035,-0.13304 1.19689,-0.17771 1.79795,-0.23839 0.52823,-0.0469 1.06378,-0.0872 1.59309,-0.0282 0.11476,0.0128 0.22837,0.0343 0.34256,0.0515 0.56476,0.12617 1.11814,0.3469 1.57374,0.711 0.0733,0.0586 0.13985,0.12522 0.20978,0.18784 0.3265,0.33113 0.494,0.76363 0.49921,1.22728 9.2e-4,0.0832 -0.009,0.16617 -0.0136,0.24926 -0.0534,0.43051 -0.24303,0.80772 -0.51766,1.1406 -0.0652,0.079 -0.13789,0.15143 -0.20683,0.22715 -0.46011,0.48812 -1.04705,0.80813 -1.64204,1.10039 -0.46243,0.22444 -0.94454,0.40099 -1.44793,0.50504 -0.37879,0.0537 -0.83742,0.0576 -0.81783,-0.489 0.003,-0.0842 0.0773,-0.14977 0.1159,-0.22466 0.0558,-0.047 0.10723,-0.0997 0.16734,-0.14095 0.13289,-0.0913 0.33371,-0.17735 0.47976,-0.23233 0.37588,-0.1415 0.76145,-0.22678 1.15344,-0.30897 0.68423,-0.10897 1.38965,-0.20783 2.08203,-0.10734 0.12185,0.0177 0.24133,0.049 0.362,0.0735 0.39155,0.1328 0.80909,0.29509 1.07731,0.62896 0.16337,0.20335 0.17407,0.29034 0.25959,0.52592 0.0835,0.37526 0.0744,0.70111 -0.12436,1.04229 -0.15162,0.26027 -0.29191,0.3731 -0.50379,0.58688 -0.5291,0.44517 -1.12531,0.81589 -1.75668,1.09877 -0.11026,0.0494 -0.22332,0.0923 -0.33497,0.13845 -0.41015,0.14807 -0.82547,0.29643 -1.25918,0.35629 -0.34069,0.008 -0.45755,-0.0879 -0.48336,-0.53933 -0.008,-0.14447 0.32042,-0.30616 0.42238,-0.35774 0.45561,-0.20708 0.95161,-0.28944 1.44444,-0.35056 0.48219,-0.0354 0.97581,-0.0374 1.44215,0.10789 0.0879,0.0274 0.1724,0.0647 0.25861,0.097 0.51327,0.22933 0.75746,0.56298 0.95011,1.08361 0.0377,0.10185 0.0651,0.20722 0.0976,0.31084 0.15653,0.70285 0.12504,1.44026 -0.0895,2.12901 -0.0527,0.16912 -0.1251,0.33145 -0.18766,0.49718 -0.39668,0.86117 -1.02136,1.58172 -1.79441,2.1274 -0.13007,0.0918 -0.26898,0.17042 -0.40347,0.25565 -0.51151,0.28275 -1.07524,0.44853 -1.66073,0.46752 -0.3289,0.0107 -0.42324,-0.0154 -0.73808,-0.0594 -0.13883,-0.0323 -0.39826,-0.0815 -0.53127,-0.15308 -0.2957,-0.15924 -0.4882,-0.42554 -0.41823,-0.77862 0.0225,-0.11346 0.0962,-0.21035 0.14437,-0.31553 0.0795,-0.0808 0.15035,-0.17116 0.2385,-0.24244 0.35941,-0.2907 0.86884,-0.43423 1.31686,-0.50951 0.10371,-0.0173 0.20871,-0.0259 0.31306,-0.0389 0.38322,-0.0105 0.78713,0.006 1.09331,0.27084 0.18942,0.1639 0.22895,0.28832 0.33836,0.50115 0.16399,0.41474 0.15458,0.81813 -0.0161,1.23227 -0.1382,0.3354 -0.24476,0.44448 -0.459,0.74158 -0.42267,0.48378 -0.89731,0.93048 -1.45197,1.26076 -0.39456,0.23494 -0.47586,0.2457 -0.90265,0.41061 -0.54337,0.15491 -1.13095,0.25918 -1.69017,0.11272 -0.29451,-0.0771 -0.34121,-0.13216 -0.58653,-0.28838 -0.0665,-0.0675 -0.14348,-0.12615 -0.19962,-0.20253 -0.156496,-0.21294 -0.225977,-0.482 -0.210705,-0.74386 0.01111,-0.18934 0.04563,-0.26799 0.0991,-0.44263 0.07985,-0.20583 0.03758,-0.107 0.125805,-0.29691 0.22069,-0.46871 0.88355,-0.15659 0.66285,0.31212 v 0 c -0.0632,0.13156 -0.0324,0.062 -0.0913,0.20931 -0.0487,0.13889 -0.0829,0.24358 -0.0618,0.39273 0.004,0.0248 0.004,0.0514 0.0156,0.0737 0.0175,0.0338 0.0465,0.0605 0.0697,0.0907 0.0415,0.0313 0.0795,0.068 0.12462,0.0939 0.32218,0.18525 0.74798,0.15935 1.09933,0.0969 0.12914,-0.023 0.25498,-0.0616 0.38246,-0.0924 0.35744,-0.13353 0.42516,-0.1415 0.75765,-0.33602 0.48312,-0.28266 0.89457,-0.67004 1.26683,-1.08395 0.22489,-0.29988 0.51975,-0.66487 0.44974,-1.0715 -0.009,-0.0519 -0.0295,-0.10104 -0.0442,-0.15156 -0.0243,-0.0586 -0.0926,-0.25063 -0.1564,-0.28715 -0.13522,-0.0774 -0.38074,-0.0714 -0.52745,-0.0749 -0.46368,0.0535 -0.94478,0.1428 -1.32396,0.43414 -0.0155,0.003 -0.0309,0.0128 -0.0466,0.0101 -0.0284,-0.005 -0.074,-0.0504 -0.0833,-0.0231 -0.029,0.0846 0.38205,0.15527 0.40904,0.16467 0.088,0.0137 0.17544,0.0324 0.26412,0.0409 0.57148,0.0545 1.13448,-0.0744 1.63874,-0.34429 0.11536,-0.0719 0.23454,-0.13794 0.34607,-0.21561 0.66573,-0.46363 1.2099,-1.07427 1.55769,-1.80949 0.0535,-0.13698 0.11539,-0.27097 0.16055,-0.41093 0.18057,-0.55965 0.21657,-1.16175 0.1005,-1.73728 -0.0728,-0.24256 -0.15937,-0.56416 -0.34232,-0.75169 -0.0909,-0.0932 -0.1525,-0.11326 -0.26835,-0.17465 -0.17174,-0.0685 -0.19582,-0.0862 -0.3817,-0.12597 -0.31723,-0.0678 -0.64568,-0.054 -0.96709,-0.0354 -0.41258,0.0495 -0.82895,0.11454 -1.21252,0.28202 -0.0258,0.0117 -0.0512,0.0241 -0.0773,0.0347 -0.006,0.003 -0.0219,0.0116 -0.02,0.005 0.01,-0.0352 0.0567,-0.0644 0.0459,-0.0993 -0.12531,-0.40743 -0.0755,-0.39921 -0.31568,-0.4336 -0.005,-7.4e-4 0.009,0.003 0.014,0.005 0.37086,-0.0414 0.7223,-0.19246 1.07388,-0.30718 0.0988,-0.0404 0.19879,-0.0779 0.2963,-0.12121 0.55804,-0.24807 1.08533,-0.57353 1.55837,-0.95887 0.20193,-0.1953 0.20887,-0.18446 0.36286,-0.39144 0.0263,-0.0353 0.0545,-0.0704 0.0718,-0.11088 0.0494,-0.11552 0.0293,-0.25555 0.0143,-0.37436 -0.0235,-0.0856 -0.0394,-0.17137 -0.0898,-0.24706 -0.15195,-0.22846 -0.46273,-0.32593 -0.70247,-0.4228 -0.0934,-0.0204 -0.18568,-0.0465 -0.28014,-0.0611 -0.61919,-0.0955 -1.25195,0.002 -1.86431,0.0952 -0.34704,0.0717 -0.68707,0.1469 -1.02091,0.26797 -0.38918,0.14114 -0.0501,0.0243 -0.32454,0.14407 -0.008,0.004 -0.0174,0.002 -0.0262,0.003 0.0428,-0.16251 0.0744,-0.19 -0.0782,-0.38423 -0.0987,-0.12569 -0.24979,-0.049 -0.0699,-0.0576 0.0422,-0.002 0.0842,-0.008 0.12624,-0.0125 0.44296,-0.0876 0.86425,-0.25073 1.27111,-0.4449 0.51414,-0.25131 1.02604,-0.52059 1.42618,-0.93953 0.17511,-0.1861 0.35317,-0.38754 0.45404,-0.62675 0.0425,-0.10085 0.0553,-0.18682 0.0777,-0.29297 0.0224,-0.25437 0.0121,-0.5291 -0.13569,-0.7499 -0.0326,-0.0487 -0.0746,-0.0904 -0.11189,-0.13556 -0.0494,-0.0459 -0.0962,-0.0948 -0.14822,-0.13769 -0.35954,-0.2966 -0.80522,-0.47146 -1.25388,-0.57908 -0.094,-0.0149 -0.18755,-0.0338 -0.28216,-0.0447 -0.48777,-0.0563 -0.9816,-0.0165 -1.46842,0.0263 -0.56613,0.0572 -1.13757,0.0983 -1.69421,0.2203 -0.31871,0.0789 -0.63149,0.17446 -0.921286,0.33239 0.01638,-0.17996 0.04114,-0.18346 -0.146203,-0.3736 -0.02774,-0.0282 -0.07702,-0.018 -0.116036,-0.0243 -0.01317,-0.002 0.02479,0.0115 0.03807,0.0117 0.106466,0.002 0.194884,-0.0263 0.299947,-0.0492 0.17043,-0.0477 0.286538,-0.0747 0.452228,-0.1446 0.34522,-0.14565 0.65828,-0.35616 0.91088,-0.63378 0.0532,-0.0666 0.11082,-0.12983 0.15969,-0.19965 0.1206,-0.17231 0.0906,-0.15666 0.16815,-0.31856 0.005,-0.0111 0.0716,-0.10989 0.0514,-0.13431 -0.0411,-0.0499 -0.10659,-0.0731 -0.15989,-0.1096 -0.0964,-0.0347 -0.19039,-0.0772 -0.28926,-0.10418 -1.03832,-0.2831 -2.134595,-0.12306 -3.170822,0.0751 -0.658684,0.16561 -0.851511,0.18578 -1.459863,0.441 -0.612381,0.25692 -1.156878,0.65144 -1.666417,1.07073 -0.312958,0.30439 -0.227361,0.19913 -0.468398,0.50683 -0.06191,0.079 -0.127192,0.15156 -0.12105,0.2561 0.0037,0.0126 0.0012,0.0291 0.01098,0.0379 0.05319,0.0479 0.159886,0.0731 0.222024,0.0836 0.202508,0.0343 0.403577,0.005 0.600219,-0.0476 0.07592,-0.0277 0.153459,-0.0513 0.227774,-0.0831 0.392951,-0.16789 0.718016,-0.44703 0.988362,-0.77407 0.197298,-0.26819 0.07062,-0.0756 0.199587,-0.31477 0.0107,-0.0197 0.01937,-0.0416 0.03555,-0.0571 0.0092,-0.009 0.03152,2.1e-4 0.03612,-0.0116 0.01725,-0.0442 -0.07563,-0.10664 -0.0844,-0.11477 -0.05349,-0.0221 -0.104265,-0.0524 -0.160454,-0.0662 -0.182742,-0.0448 -0.473804,-0.0571 -0.650418,-0.054 -0.539382,0.01 -1.07015,0.11036 -1.590329,0.24795 -0.507945,0.15594 -0.687046,0.18785 -1.158776,0.42052 -0.623638,0.30759 -1.172094,0.75087 -1.667557,1.23312 -0.229763,0.23278 -0.437796,0.42813 -0.637212,0.68681 -0.187977,0.24384 -0.402028,0.60416 -0.501987,0.89789 -0.02875,0.0845 -0.04234,0.17336 -0.06351,0.26005 -0.0288,0.27845 -0.05113,0.52942 0.02899,0.80506 0.07703,0.26503 0.239241,0.48618 0.429479,0.68076 0.06244,0.0518 0.121381,0.10813 0.187335,0.15537 0.27794,0.19909 0.616938,0.27229 0.949128,0.31863 0.127237,0.014 0.488566,0.0636 0.611463,-8.3e-4 0.01918,-0.0101 0.03538,-0.025 0.05306,-0.0375 0.06697,-0.052 0.116825,-0.11857 0.116582,-0.207 -0.01348,-0.0917 -0.0324,-0.18068 -0.109522,-0.24056 -0.0218,-0.0143 -0.07385,-0.0508 -0.100294,-0.0599 -0.135966,-0.0466 -0.333345,0.0142 -0.469229,0.0329 -0.400117,0.0963 -0.785982,0.2433 -1.141261,0.45331 -0.126415,0.0826 -0.236697,0.15187 -0.357742,0.24255 -0.252083,0.18883 -0.47407,0.41379 -0.679565,0.65169 -0.150274,0.19619 -0.219696,0.27758 -0.352923,0.49091 -0.256411,0.41058 -0.436218,0.85794 -0.517978,1.33635 -0.04049,0.31606 -0.07116,0.41814 -0.04429,0.73392 0.03878,0.45578 0.227978,0.86862 0.492998,1.23593 0.208558,0.26542 0.417499,0.52883 0.658009,0.76669 0.207256,0.20499 0.143531,0.12792 0.32884,0.28356 0.0164,0.0139 0.03063,0.0299 0.04595,0.0449 -0.01146,0.01 -0.07481,0.0531 -0.06471,0.0834 0.0035,0.0104 0.0237,-0.003 0.0308,-0.0114 0.08893,-0.10402 0.09629,-0.25894 0.127848,-0.38411 0.04354,-0.36657 0.0476,-0.74114 -0.03458,-1.1032 0.04373,-0.0682 -0.0155,0.008 0.08708,-0.0408 0.01392,-0.007 0.0444,-0.0308 0.0297,-0.0354 -0.100894,-0.0313 -0.35161,0.22016 -0.394783,0.26492 -0.167846,0.19764 -0.225673,0.25382 -0.370792,0.47515 -0.278559,0.42483 -0.471171,0.89955 -0.644213,1.3747 -0.04953,0.15451 -0.105368,0.30713 -0.148586,0.46353 -0.237264,0.85857 -0.329779,1.75883 -0.224665,2.64466 0.0517,0.28443 0.07945,0.54109 0.192026,0.80813 0.09718,0.23052 0.288173,0.44751 0.495096,0.58667 0.06084,0.0409 0.129981,0.0679 0.194972,0.10184 0.08182,0.0123 0.162733,0.038 0.245456,0.0368 0.235991,-0.003 0.480697,-0.0856 0.695375,-0.17096 0.441487,-0.17562 0.855252,-0.41277 1.214003,-0.72578 0.101471,-0.0951 0.205793,-0.18718 0.30441,-0.2852 0.312702,-0.31082 0.57111,-0.66771 0.823221,-1.02772 0.301121,-0.42157 0.897309,0.004 0.596188,0.42585 z"
       id="path3723" />
    <path
       inkscape:export-ydpi="17.531469"
       inkscape:export-xdpi="17.531469"
       inkscape:connector-curvature="0"
       d="m 97.08149,147.64641 c -0.0023,0.20684 0.0061,0.41388 -0.0068,0.6204 -0.01723,0.14444 -0.02582,0.28991 -0.04736,0.43374 -0.02213,0.0988 -0.03294,0.19945 -0.03914,0.30039 0.0018,0.11356 -0.0218,0.22459 -0.03832,0.3363 -0.01243,0.11038 -0.01317,0.22164 -0.01443,0.33258 -0.0013,0.12719 0.0208,0.25351 0.03296,0.38004 0.01125,0.11932 0.01403,0.23915 0.01519,0.35891 7.36e-4,0.11896 3.68e-4,0.23792 3.68e-4,0.35689 0.009,0.10175 -0.0144,0.20835 0.0039,0.3091 0.0205,0.12053 0.03144,0.24222 0.03866,0.36418 0.01568,0.0911 0.03363,0.18138 0.05267,0.27176 0.0314,0.13073 0.08134,0.25555 0.122434,0.3833 0.04036,0.13741 0.08782,0.27104 0.149602,0.40019 0.06672,0.13676 0.127102,0.27677 0.196952,0.41198 0.07081,0.14298 0.155286,0.27799 0.244133,0.41026 0.09033,0.11977 0.174944,0.24328 0.265216,0.36304 0.08835,0.11447 0.168549,0.23458 0.260973,0.34591 0.07877,0.0943 0.167239,0.17944 0.258911,0.261 0.10854,0.09 0.216729,0.18053 0.321019,0.2756 0.07334,0.0592 0.153567,0.10986 0.23282,0.16083 0.09854,0.0524 0.178649,0.132 0.273152,0.19049 0.05658,0.042 0.116619,0.0834 0.179493,0.11392 0.09752,0.0502 0.189227,0.11006 0.277848,0.17439 0.08616,0.0516 0.153039,0.12724 0.228089,0.19226 0.0839,0.0723 0.16431,0.1484 0.24408,0.22515 0.10353,0.10456 0.21069,0.20513 0.31735,0.30633 0.0525,0.0485 0.11395,0.0816 0.17362,0.11719 0.0751,0.0333 0.14901,0.0744 0.22133,0.11544 0.0826,0.0451 0.16733,0.0866 0.25665,0.11691 0.0974,0.0317 0.19565,0.0607 0.29342,0.0914 0.14863,0.0478 0.29709,0.096 0.44438,0.14792 0.0574,0.0183 0.11389,0.0382 0.17416,0.043 0.51235,0.0767 0.40381,0.80133 -0.10854,0.72457 v 0 c -0.10547,-0.0179 -0.20921,-0.0386 -0.30973,-0.0767 -0.13922,-0.0493 -0.27957,-0.095 -0.42022,-0.13986 -0.10649,-0.0335 -0.21306,-0.0662 -0.31938,-0.10011 -0.12934,-0.0471 -0.25488,-0.10375 -0.3749,-0.17132 -0.079,-0.0459 -0.16065,-0.085 -0.2414,-0.12737 -0.0391,-0.0281 0.0334,0.0234 -0.0827,-0.0478 -0.0758,-0.0465 -0.14485,-0.10559 -0.21227,-0.1629 -0.1069,-0.10263 -0.216001,-0.20293 -0.319884,-0.30876 -0.0752,-0.0724 -0.15116,-0.14402 -0.230253,-0.21218 -0.05642,-0.0525 -0.108036,-0.10783 -0.174715,-0.14793 -0.04289,-0.0394 -0.10036,-0.0639 -0.147966,-0.0962 -0.09338,-0.0464 -0.184404,-0.0999 -0.267642,-0.1629 -0.09283,-0.0615 -0.177419,-0.13409 -0.273303,-0.1906 -0.11319,-0.0741 -0.228754,-0.14609 -0.330057,-0.23637 -0.10069,-0.0947 -0.209675,-0.17967 -0.314424,-0.26959 -0.117682,-0.10659 -0.232735,-0.21639 -0.333865,-0.33918 -0.09885,-0.12013 -0.187325,-0.24755 -0.281154,-0.37149 -0.09848,-0.13064 -0.191056,-0.26524 -0.288913,-0.39637 -0.104356,-0.15619 -0.203755,-0.3156 -0.287504,-0.48401 -0.07238,-0.14225 -0.13747,-0.28809 -0.206752,-0.43185 -0.07497,-0.15898 -0.136058,-0.32248 -0.185538,-0.49118 -0.04823,-0.15211 -0.108439,-0.30052 -0.141864,-0.45711 -0.02567,-0.12551 -0.05292,-0.25082 -0.06679,-0.3784 -0.0064,-0.11211 -0.01839,-0.2235 -0.03632,-0.33438 -0.01028,-0.12727 -0.008,-0.25457 -0.0075,-0.38222 9.7e-5,-0.11619 3.68e-4,-0.23238 -3.68e-4,-0.34857 -9.19e-4,-0.099 -0.0029,-0.19812 -0.01202,-0.29679 -0.01453,-0.15267 -0.04042,-0.30502 -0.03623,-0.45877 0.0018,-0.14421 0.0037,-0.28884 0.02246,-0.43205 0.01388,-0.0916 0.03494,-0.18107 0.03172,-0.27431 0.0082,-0.12539 0.02077,-0.25066 0.04751,-0.37364 0.02649,-0.11888 0.01668,-0.24564 0.03933,-0.36552 0.01637,-0.1888 -0.0019,-0.37963 0.005,-0.56889 0,-0.51806 0.732664,-0.51806 0.732664,0 z"
       id="path3795"
       style="fill:#000000;stroke-width:0.0483534" />
    <path
       inkscape:export-ydpi="17.531469"
       inkscape:export-xdpi="17.531469"
       inkscape:connector-curvature="0"
       d="m 100.18899,156.79264 c -0.196659,-0.0635 -0.398344,-0.10893 -0.593249,-0.17794 -0.08788,-0.008 -0.169567,-0.10572 -0.254461,-0.11238 0.02593,0.0316 0.08034,0.004 0.08191,0.008 0.0035,0.009 -0.01706,0.0104 -0.0257,0.0156 -0.0642,0.0494 -0.125879,0.10179 -0.189109,0.15236 -0.09139,0.0662 -0.183227,0.13214 -0.275721,0.19692 -0.08422,0.0699 -0.180228,0.12464 -0.274286,0.18014 -0.06662,0.0434 -0.129426,0.0911 -0.189396,0.14329 -0.169522,0.13498 -0.387799,0.17189 -0.590864,0.0937 -0.03562,-0.0138 -0.06809,-0.0345 -0.102145,-0.0518 -0.150425,-0.0828 -0.255796,-0.21864 -0.362145,-0.34917 -0.07655,-0.0954 -0.166064,-0.1788 -0.25678,-0.26043 -0.06428,-0.0638 -0.143579,-0.10795 -0.219233,-0.15667 -0.06869,-0.0354 -0.133515,-0.0798 -0.206511,-0.10617 -0.0015,-3.6e-4 -0.03967,-0.0105 -0.041,-0.009 -0.0041,0.005 0.01212,0.006 0.01849,0.007 0.01,0.002 0.02022,0.002 0.03033,0.003 0.01331,-0.002 0.02645,-0.008 0.03971,-0.006 0.0062,9.2e-4 -0.01077,0.006 -0.01607,0.01 0.03514,-0.0158 -0.0072,0.0196 -0.01092,0.0242 -0.01289,0.0159 -0.01747,0.0367 -0.02758,0.0544 -0.06082,0.0987 -0.112649,0.20231 -0.173235,0.30113 -0.07796,0.12582 -0.183671,0.22494 -0.298028,0.31642 -0.09735,0.0769 -0.209168,0.12923 -0.322842,0.1769 -0.185518,0.078 -0.374016,0.0526 -0.557499,-0.0119 -0.154621,-0.073 -0.277222,-0.19312 -0.389817,-0.31898 -0.06797,-0.0746 -0.14479,-0.14151 -0.227757,-0.19904 -0.08599,-0.0688 -0.176801,-0.13115 -0.263877,-0.19845 -0.06021,-0.0496 -0.121087,-0.0967 -0.186062,-0.13964 -0.03899,-0.0149 -0.07558,-0.0421 -0.116529,-0.0513 -0.0057,-0.001 0.0094,0.007 0.01494,0.009 0.01268,0.004 0.02609,0.006 0.03913,0.01 0.04093,0.0147 0.09699,-0.0371 0.05011,0.007 -0.0019,0.002 0.0083,-0.004 0.0078,-0.002 -0.0032,0.017 -0.02279,0.026 -0.03444,0.0388 -0.05612,0.0649 -0.103056,0.13772 -0.151041,0.2092 -0.01555,0.0197 -0.02975,0.0406 -0.04664,0.0592 -0.02945,0.0324 -0.06071,0.0633 -0.09387,0.0918 -0.0042,0.004 -0.09127,0.0678 -0.09809,0.0809 -0.107909,0.1061 -0.237044,0.17295 -0.380539,0.21684 -0.204205,0.0562 -0.395545,-0.004 -0.572999,-0.10368 -0.116007,-0.0674 -0.21129,-0.1603 -0.306338,-0.25333 -0.107558,-0.0948 -0.196922,-0.2062 -0.280968,-0.32168 -0.06346,-0.0682 -0.01686,-5.5e-4 0.0336,0.009 0.02647,0.005 0.05362,0.005 0.08043,0.007 0.064,-0.0178 0.102793,-0.016 0.146493,-0.056 0.0098,-0.009 0.02882,-0.0425 0.02666,-0.0294 -0.0035,0.0209 -0.02466,0.0347 -0.03387,0.0538 -0.06548,0.11479 -0.153537,0.21377 -0.242362,0.3107 -0.07024,0.0801 -0.145879,0.15621 -0.213722,0.23843 -0.07467,0.0862 -0.159767,0.15896 -0.253777,0.22334 -0.144365,0.10088 -0.314124,0.11288 -0.483678,0.11085 -0.160084,0.004 -0.307585,-0.0469 -0.446762,-0.12073 -0.09021,-0.0472 -0.1567,-0.12053 -0.220703,-0.19734 -0.316126,-0.41043 0.264318,-0.8575 0.580445,-0.44706 v 0 c -0.0042,-0.003 -0.04201,-0.0104 0.01318,0.0138 -0.05269,-0.0146 0.05655,0.0295 0.08421,0.0188 0.0057,9e-5 0.0741,-0.005 0.0805,10e-4 0.0017,0.002 -0.01911,0.01 -0.03695,0.0234 -0.0048,0.004 0.01098,-0.005 0.01648,-0.008 0.04165,-0.0284 0.07949,-0.0533 0.111643,-0.0962 0.07548,-0.0863 0.15254,-0.17133 0.229593,-0.25628 0.05302,-0.0575 0.108048,-0.11479 0.148073,-0.18251 0.102101,-0.17062 0.196746,-0.275 0.399169,-0.32736 0.04846,-5.5e-4 0.09717,-0.007 0.145377,-0.001 0.179454,0.0185 0.32265,0.1463 0.428722,0.28155 0.06037,0.0833 0.123286,0.16364 0.202417,0.23041 0.05577,0.0552 0.108917,0.1132 0.178163,0.15252 -0.02983,-10e-4 0.02435,0.0124 0.02327,0.014 -0.0021,0.003 -0.0813,0.004 -0.03387,0.007 0.03366,-7.3e-4 0.05354,-0.0257 0.0799,-0.0485 0.03085,-0.0273 0.1281,-0.1062 0.133305,-0.11015 0.06938,-0.0996 0.134484,-0.20311 0.217429,-0.29209 0.136204,-0.14556 0.288833,-0.25794 0.494714,-0.27781 0.04518,0.002 0.09081,3.7e-4 0.135555,0.007 0.125039,0.0188 0.2406,0.0879 0.349781,0.14668 0.08251,0.0545 0.159656,0.11482 0.236687,0.1763 0.07538,0.0639 0.162893,0.11334 0.237488,0.17853 0.126732,0.0929 0.248287,0.19354 0.351959,0.31224 0.03358,0.0416 0.07397,0.0756 0.112286,0.11262 0.0027,0.003 0.0082,0.005 0.0074,0.008 -6.25e-4,0.003 -0.006,-3.7e-4 -0.0091,-3.7e-4 -0.03195,-1.4e-4 0.0059,-0.001 0.01226,0.006 0.0036,0.004 -0.01154,5.5e-4 -0.01642,0.003 -0.002,0.001 0.0085,7.4e-4 0.0067,0.002 -0.0059,0.005 -0.02568,0.004 -0.02086,0.01 0.005,0.006 0.01535,-0.005 0.02302,-0.007 0.05203,-0.0208 0.102598,-0.0407 0.147798,-0.0742 0.04563,-0.0359 0.0945,-0.0708 0.130416,-0.12863 0.05732,-0.0899 0.101151,-0.18769 0.159057,-0.27731 0.08371,-0.14633 0.185138,-0.27637 0.332668,-0.36345 0.20434,-0.10432 0.372048,-0.11761 0.58603,-0.0363 0.113795,0.0478 0.222329,0.10616 0.328292,0.16941 0.108306,0.0699 0.219555,0.1374 0.312394,0.22791 0.118618,0.10684 0.23404,0.21779 0.334584,0.34217 0.04992,0.0613 0.09598,0.13514 0.160822,0.17763 -0.0573,-0.0135 -0.110678,-0.001 -0.157952,0.0373 -0.0015,0.001 0.0036,3.7e-4 0.0054,5.5e-4 0.09451,-0.0812 0.193776,-0.15554 0.299389,-0.22182 0.07865,-0.0448 0.156443,-0.0911 0.225919,-0.14936 0.08059,-0.0548 0.158917,-0.11338 0.238514,-0.16934 0.0886,-0.0685 0.170595,-0.14591 0.265895,-0.20551 0.159807,-0.0957 0.329422,-0.1412 0.515634,-0.10242 0.109312,0.0325 0.207649,0.0834 0.310397,0.1302 0.193149,0.0735 0.399709,0.10593 0.593539,0.17804 0.48688,0.17705 0.23649,0.86559 -0.25038,0.68854 z"
       id="path3799"
       style="fill:#000000;stroke-width:0.0483534" />
  </g>
  <g
     transform="translate(-82.754751,-127.36928)"
     style="display:inline"
     inkscape:label="Layer 2"
     id="layer2"
     inkscape:groupmode="layer">
    <path
       inkscape:export-ydpi="17.531469"
       inkscape:export-xdpi="17.531469"
       style="stroke-width:0.0435874"
       inkscape:connector-curvature="0"
       d="m 87.435058,158.57533 c 0.06267,-0.23506 0.116069,-0.4728 0.160252,-0.71305 0.04338,-0.25014 0.09799,-0.49759 0.166172,-0.74067 0.06684,-0.21445 0.138411,-0.42723 0.220356,-0.63504 0.08055,-0.22197 0.196863,-0.42333 0.308711,-0.62634 0.13145,-0.2359 0.269986,-0.46572 0.424069,-0.68381 0.163497,-0.22479 0.356055,-0.42007 0.542777,-0.62001 0.190509,-0.19037 0.373887,-0.38973 0.575715,-0.56514 0.188375,-0.16682 0.397764,-0.2993 0.606218,-0.43136 0.181646,-0.1164 0.37941,-0.19172 0.577632,-0.26312 0.184075,-0.0672 0.372953,-0.11573 0.563042,-0.15588 0.173863,-0.0268 0.348393,-0.0537 0.523712,-0.0641 0.177937,-0.0121 0.35105,0.0281 0.522421,0.0754 0.119737,0.0294 0.237802,0.0662 0.354381,0.1086 0.166005,0.0644 0.324902,0.14757 0.473856,0.25164 0.137099,0.0985 0.268359,0.20491 0.388436,0.32822 0.110042,0.11725 0.20949,0.24571 0.31637,0.36649 0.102569,0.11219 0.193289,0.23694 0.281531,0.36319 0.10879,0.15987 0.197003,0.33552 0.277572,0.51464 0.07411,0.17138 0.119501,0.35519 0.174547,0.53468 0.03659,0.17303 0.107313,0.32842 0.186768,0.48079 0.07222,0.15117 0.1469,0.30051 0.212155,0.45569 0.04789,0.1275 0.09219,0.25677 0.12929,0.38872 0.03503,0.11609 0.06724,0.23309 0.103104,0.34888 0.03226,0.1162 0.07298,0.22898 0.104782,0.34538 0.03419,0.0947 0.07115,0.18864 0.109274,0.28154 0.03833,0.10506 0.07557,0.21052 0.114646,0.31525 0.03028,0.10547 0.07259,0.20537 0.113086,0.30617 0.03552,0.0844 0.07298,0.16717 0.114411,0.24795 0.05209,0.10964 0.0938,0.22492 0.12904,0.34255 0.01195,0.0523 0.02692,0.10141 0.03975,0.15341 0.109448,0.47876 -0.49516,0.6521 -0.604608,0.17333 v 0 c -0.0026,-0.038 -0.02416,-0.071 -0.02817,-0.10892 -0.02046,-0.0732 -0.04749,-0.14375 -0.07735,-0.21256 -0.05161,-0.10087 -0.09838,-0.20424 -0.142442,-0.30954 -0.04259,-0.10655 -0.08804,-0.2121 -0.11981,-0.32357 -0.0363,-0.0979 -0.07188,-0.19604 -0.106615,-0.29461 -0.0491,-0.12165 -0.09935,-0.24346 -0.138805,-0.36945 -0.02814,-0.10754 -0.06871,-0.21036 -0.09684,-0.31793 -0.03813,-0.12314 -0.07227,-0.24759 -0.109591,-0.371 -0.02744,-0.10193 -0.06358,-0.20053 -0.09845,-0.29943 -0.05677,-0.13713 -0.124286,-0.26756 -0.186833,-0.4014 -0.0986,-0.1916 -0.188458,-0.3889 -0.237173,-0.60462 -0.04588,-0.15013 -0.08377,-0.30371 -0.14229,-0.44854 -0.06109,-0.13794 -0.128814,-0.27296 -0.210973,-0.39672 -0.07326,-0.10489 -0.147877,-0.20926 -0.233435,-0.30207 -0.100397,-0.11358 -0.194584,-0.23344 -0.29663,-0.34513 -0.09141,-0.0958 -0.194438,-0.17425 -0.299004,-0.25118 -0.103623,-0.0758 -0.217903,-0.12944 -0.333683,-0.1776 -0.101725,-0.0377 -0.205216,-0.0685 -0.309844,-0.0943 -0.113626,-0.0314 -0.227148,-0.0647 -0.345615,-0.0557 -0.145998,0.004 -0.291183,0.0355 -0.436268,0.0529 -0.164383,0.034 -0.327556,0.0764 -0.48666,0.13421 -0.157983,0.0569 -0.316731,0.11375 -0.461771,0.20631 -0.183038,0.11557 -0.367424,0.23073 -0.532802,0.37695 -0.185653,0.15767 -0.348977,0.34525 -0.52476,0.51617 -0.166123,0.17788 -0.338105,0.35095 -0.485199,0.54929 -0.139434,0.1961 -0.262891,0.40426 -0.381888,0.61649 -0.09704,0.17596 -0.199752,0.34955 -0.26915,0.54227 -0.07302,0.18394 -0.135499,0.37287 -0.195844,0.56242 -0.06247,0.22023 -0.110546,0.4451 -0.150153,0.67183 -0.04951,0.26702 -0.108535,0.53149 -0.179339,0.79249 -0.139555,0.46884 -0.731634,0.24782 -0.59208,-0.22102 z"
       id="path3733" />
    <path
       inkscape:export-ydpi="17.531469"
       inkscape:export-xdpi="17.531469"
       style="stroke-width:0.0435874"
       inkscape:connector-curvature="0"
       d="m 88.945149,158.60643 c 0.148266,0.0301 0.297598,0.0527 0.447699,0.0672 0.103186,0.005 0.203804,0.0325 0.306056,0.0462 0.09933,0.003 0.197212,0.0174 0.295173,0.0354 0.104703,0.0131 0.209361,0.0189 0.313621,0.0369 0.0791,0.0162 0.159074,0.0242 0.239309,0.0281 0.07862,0.003 0.157296,0.003 0.235949,0.003 0.08304,-1e-4 0.166071,-1.8e-4 0.249107,-1.8e-4 0.09351,-7.4e-4 0.186112,-0.009 0.279944,-0.007 0.08807,0.003 0.176141,0.005 0.264235,0.006 0.08231,7.4e-4 0.164618,7.4e-4 0.246927,7.4e-4 0.107118,-0.006 0.212996,0.009 0.319002,0.0238 0.09855,0.0207 0.195365,0.0493 0.295162,0.0617 0.08574,0.007 0.171291,0.007 0.256868,0.0164 0.102496,0.02 0.20301,0.0544 0.302725,0.0877 0.05903,0.0244 0.120624,0.0342 0.182956,0.0395 0.0951,7.3e-4 0.188512,0.022 0.282546,0.0353 0.09144,0.009 0.182624,0.0183 0.273612,0.0312 0.06098,0.0127 0.124342,-0.001 0.186896,-0.006 0.08928,-0.007 0.178786,-0.009 0.268252,-0.01 0.08433,-7.4e-4 0.168665,-5.5e-4 0.252998,-5.5e-4 0.06885,0.007 0.09995,-0.009 0.170483,-0.0227 0.09297,-0.0174 0.18728,-0.0209 0.281318,-0.0231 0.09416,-0.01 0.187669,0.016 0.281463,0.0138 0.08873,-0.005 0.176358,0.0146 0.264315,0.0241 -0.05831,-0.006 0.101163,-0.0238 0.145589,-0.0287 0.06883,-10e-4 0.134543,-0.0167 0.202925,-0.0243 0.440236,-0.0344 0.483716,0.66278 0.04348,0.69721 v 0 c -0.05758,0.009 -0.12453,0.0213 -0.187245,0.0229 -0.08891,0.009 -0.176191,0.0349 -0.266136,0.0284 -0.07262,-0.008 -0.144755,-0.0253 -0.217852,-0.0209 -0.08557,-0.004 -0.168924,-0.0168 -0.253954,-0.0138 -0.06209,0.001 -0.124426,0.003 -0.185983,0.0127 -0.09232,0.0178 -0.184162,0.0415 -0.278681,0.0332 -0.08207,-5e-5 -0.164136,-1.8e-4 -0.246206,5.5e-4 -0.07689,7.3e-4 -0.153827,0.002 -0.230574,0.008 -0.104947,0.008 -0.211184,0.0231 -0.315674,0.001 -0.08888,-0.0164 -0.179072,-0.0176 -0.268457,-0.0305 -0.08502,-0.0123 -0.168488,-0.0322 -0.254425,-0.032 -0.107315,-0.0104 -0.213903,-0.0287 -0.316125,-0.0683 -0.06399,-0.0242 -0.131146,-0.0416 -0.195633,-0.0619 -0.02049,-0.01 -0.0036,-0.003 -0.05152,-0.004 -0.06681,-10e-4 -0.133661,-0.004 -0.20016,-0.0119 -0.101495,-0.0136 -0.201857,-0.0344 -0.300992,-0.0625 -0.08064,-0.0114 -0.159576,-0.0252 -0.24126,-0.0183 -0.08464,-5e-5 -0.169275,-1e-4 -0.253909,-0.001 -0.08903,-0.001 -0.178041,-0.003 -0.267043,-0.006 -0.09018,-0.002 -0.179288,0.007 -0.269405,0.007 -0.08317,5e-5 -0.166344,1.8e-4 -0.249517,1.9e-4 -0.08819,10e-6 -0.176421,1.7e-4 -0.26457,-0.003 -0.102954,-0.005 -0.205654,-0.0155 -0.307226,-0.0358 -0.105458,-0.0188 -0.212231,-0.019 -0.317847,-0.0377 -0.09012,-0.0165 -0.179419,-0.0274 -0.270894,-0.0315 -0.09487,-0.0134 -0.188375,-0.0375 -0.28389,-0.0436 -0.169305,-0.0167 -0.337831,-0.0418 -0.505074,-0.0759 -0.434192,-0.0884 -0.322548,-0.77604 0.111643,-0.68764 z"
       id="path3739" />
    <path
       inkscape:export-ydpi="17.531469"
       inkscape:export-xdpi="17.531469"
       style="stroke-width:0.0435874"
       inkscape:connector-curvature="0"
       d="m 87.794188,158.50346 c 0.162891,0.0142 0.323595,0.0488 0.485716,0.0707 0.09897,0.0129 0.198484,0.0124 0.297468,0.0242 0.08427,0.0104 0.165016,0.0386 0.246688,0.0624 0.426891,0.1253 0.268666,0.80137 -0.158226,0.67608 v 0 c -0.05615,-0.0166 -0.110702,-0.0378 -0.168614,-0.0453 -0.02633,-0.009 -0.0052,-0.003 -0.05918,-0.005 -0.07795,-0.003 -0.155809,-0.009 -0.233302,-0.0187 -0.1559,-0.0213 -0.310527,-0.0537 -0.467056,-0.0684 -0.439498,-0.0447 -0.382994,-0.74078 0.0565,-0.69604 z"
       id="path3741" />
    <path
       inkscape:export-ydpi="17.531469"
       inkscape:export-xdpi="17.531469"
       style="stroke-width:0.0435874"
       inkscape:connector-curvature="0"
       d="m 86.991126,157.59523 c -0.07986,-0.18684 -0.172981,-0.36552 -0.270577,-0.54123 -0.06432,-0.11818 -0.139787,-0.22676 -0.215961,-0.3352 -0.05067,-0.0762 -0.110898,-0.14303 -0.168045,-0.21316 -0.07221,-0.0961 -0.124654,-0.20778 -0.185138,-0.313 -0.04616,-0.0564 -0.08096,-0.12344 -0.124816,-0.1817 -0.03515,-0.0588 -0.07104,-0.12272 -0.10545,-0.17697 -0.0567,-0.0625 -0.09926,-0.13904 -0.151151,-0.20606 -0.03021,-0.059 -0.06906,-0.0968 -0.116358,-0.13479 -0.06732,-0.0554 -0.139262,-0.10346 -0.210197,-0.15285 -0.06566,-0.0344 -0.108001,-0.11496 -0.172716,-0.14916 -0.06004,-0.0415 -0.114311,-0.0966 -0.180478,-0.12604 -0.06521,-0.0399 -0.137491,-0.0585 -0.20807,-0.0825 -0.05819,-0.0132 -0.116113,-0.0324 -0.175547,-0.0335 -0.05354,-7.3e-4 -0.118739,-7.3e-4 -0.154665,0.009 0.0017,1.8e-4 0.0066,1.8e-4 0.005,0.001 -0.05492,0.0309 -0.113919,0.0542 -0.170208,0.0821 -0.06646,0.0282 -0.129854,0.0622 -0.190037,0.10428 -0.03748,0.0436 -0.102895,0.0921 -0.149167,0.13889 -0.05629,0.0578 -0.108102,0.11978 -0.155813,0.18638 -0.03318,0.0646 -0.05726,0.13632 -0.07844,0.207 -0.04057,0.12775 -0.07399,0.257 -0.119569,0.38291 -0.03221,0.11314 -0.07613,0.22181 -0.122962,0.3282 -0.03218,0.085 -0.07867,0.16295 -0.107354,0.24961 -0.03621,0.0737 -0.04745,0.15469 -0.06513,0.23499 -0.01203,0.0726 -0.03508,0.11453 -0.01956,0.17491 0.01048,0.0928 0.01745,0.18598 0.02188,0.27938 0.004,0.11164 0.0042,0.22338 0.0044,0.33509 0.02168,0.057 -0.04241,0.26247 -0.02527,0.30563 0.0031,0.0175 0.0019,0.0359 0.0054,0.0533 0.001,0.005 -0.0044,-0.0176 2.21e-4,-0.016 0.0055,0.002 0.0032,0.0123 0.0058,0.0181 0.0034,0.008 -0.0037,-0.0167 -0.0065,-0.0246 0.0258,0.0339 0.04745,0.0821 0.08577,0.10027 0.07198,0.0647 0.148512,0.12247 0.221726,0.18526 0.07669,0.0554 0.141845,0.12755 0.214125,0.18916 0.04767,0.0433 0.102591,0.0777 0.161119,0.099 0.04954,0.0134 0.100889,0.0146 0.151585,0.0163 0.102214,0.001 0.202646,0.0254 0.304224,0.0358 0.08861,0.008 0.177546,0.01 0.266405,0.0106 0.108585,-0.006 0.215584,0.0155 0.322742,0.0313 0.06246,0.0147 0.116933,-0.001 0.180018,-0.0105 0.09389,-0.0136 0.188533,-0.0176 0.283088,-0.0198 0.103743,-0.008 0.205872,0.005 0.307956,0.0248 0.08278,0.0152 0.166575,0.0171 0.249789,0.0278 0.08506,0.0168 0.170495,0.0294 0.256682,0.0355 0.09974,0.005 0.19772,0.0284 0.296865,0.0404 0.07634,0.008 0.153081,0.01 0.229715,0.0104 0.04814,0.003 0.09406,-0.0123 0.13261,-0.0276 0.06285,-0.0283 0.143695,-0.0659 0.227563,-0.0881 0.07778,-0.007 0.141745,-0.0294 0.21845,-0.0463 0.03508,-0.003 0.06248,-0.0132 0.09579,-0.0225 0.428202,-0.11956 0.579183,0.55859 0.150981,0.67815 v 0 c -0.04281,0.0119 -0.08566,0.0255 -0.129633,0.0309 -0.06742,0.0135 -0.133041,0.0391 -0.201949,0.0426 -0.0559,0.007 -0.10142,0.0546 -0.156957,0.0659 -0.110469,0.0423 -0.226014,0.0691 -0.343355,0.0661 -0.09739,-0.001 -0.194903,-0.003 -0.291863,-0.0146 -0.08979,-0.0113 -0.178667,-0.0314 -0.268697,-0.0377 -0.09951,-0.007 -0.198552,-0.0199 -0.296744,-0.0398 -0.08957,-0.0185 -0.183897,-0.007 -0.273165,-0.0317 -0.0642,-0.0121 -0.124933,-0.0233 -0.191003,-0.0152 -0.07229,0.002 -0.144679,0.004 -0.216487,0.0143 -0.113433,0.0163 -0.227392,0.0339 -0.341333,0.0102 -0.08238,-0.0122 -0.163739,-0.0314 -0.247256,-0.0253 -0.106598,-0.001 -0.213278,-0.004 -0.319543,-0.0138 -0.08871,-0.01 -0.176659,-0.0291 -0.265498,-0.0331 -0.117822,-0.005 -0.236132,-0.0152 -0.34822,-0.0596 -0.11733,-0.0507 -0.231034,-0.11401 -0.328776,-0.20398 -0.07112,-0.0633 -0.13826,-0.13213 -0.213893,-0.18896 -0.06516,-0.0607 -0.139885,-0.10825 -0.204154,-0.1704 -0.08683,-0.0744 -0.166151,-0.15897 -0.227697,-0.26111 -0.07765,-0.13876 -0.120557,-0.27136 -0.119924,-0.43736 0.0029,-0.10198 0.01979,-0.20115 0.02526,-0.30182 -2.02e-4,-0.10012 -3.68e-4,-0.20027 -0.0036,-0.30034 -0.0042,-0.0936 -0.01344,-0.18657 -0.0219,-0.27977 -0.0031,-0.1298 0.0029,-0.25945 0.03825,-0.38427 0.02723,-0.10866 0.0423,-0.22185 0.09086,-0.32285 0.03813,-0.10285 0.08521,-0.20059 0.128039,-0.301 0.04102,-0.0893 0.07478,-0.18283 0.102773,-0.27818 0.04189,-0.11564 0.07092,-0.23502 0.10919,-0.3522 0.04654,-0.14477 0.09651,-0.29069 0.181265,-0.41366 0.07244,-0.1003 0.151119,-0.19429 0.237289,-0.28008 0.07505,-0.07 0.151235,-0.13875 0.229717,-0.20401 0.08501,-0.057 0.172781,-0.10863 0.26559,-0.14807 0.09232,-0.0443 0.183263,-0.0933 0.279953,-0.12483 0.105971,-0.0248 0.212943,-0.0293 0.32099,-0.0246 0.10976,0.008 0.218286,0.0307 0.324504,0.0628 0.0985,0.0336 0.198749,0.0633 0.290229,0.11776 0.09361,0.0509 0.181263,0.11222 0.265809,0.18014 0.05473,0.0431 0.105319,0.0894 0.155233,0.13642 0.08241,0.0582 0.166588,0.11374 0.244842,0.17905 0.08862,0.0724 0.171218,0.15281 0.23193,0.25652 0.05073,0.0704 0.09788,0.14424 0.153855,0.20977 0.04436,0.0647 0.08466,0.13214 0.122571,0.20171 0.04582,0.0714 0.09837,0.14402 0.148146,0.21957 0.0415,0.0725 0.08188,0.14609 0.121079,0.21967 0.06767,0.0831 0.1384,0.16334 0.198549,0.25357 0.08924,0.12875 0.178688,0.25707 0.254418,0.3968 0.107743,0.19407 0.210263,0.39164 0.298806,0.59775 0.19736,0.44203 -0.360858,0.75459 -0.558218,0.31257 z"
       id="path3743" />
    <path
       inkscape:export-ydpi="17.531469"
       inkscape:export-xdpi="17.531469"
       style="stroke-width:0.0435874"
       inkscape:connector-curvature="0"
       d="m 87.74525,158.38469 c 0.01734,0.0989 0.02187,0.19986 0.03501,0.29935 0.0018,0.0136 0.02064,0.12483 0.01245,0.12571 -0.317896,0.0342 -0.299247,0.11069 -0.316373,-0.0336 -0.0017,-0.0377 -0.01031,-0.0743 -0.01963,-0.1104 -0.0074,-0.0384 -0.01602,-0.0756 -0.03002,-0.11068 -0.01973,-0.0456 -0.03199,-0.0941 -0.04653,-0.14187 -0.01465,-0.0473 -0.02102,-0.0968 -0.03202,-0.1449 -0.01331,-0.0581 -0.01797,-0.11794 -0.02057,-0.17769 -0.0067,-0.0258 -0.01156,-0.0552 -0.01845,-0.0822 -0.01812,-0.0479 -0.01137,-0.10505 -0.02337,-0.15343 -0.0081,-0.036 -0.0064,-0.0183 -0.02749,-0.0636 -0.0074,-0.0168 -0.02785,-0.0616 -0.01637,-0.0298 1.8e-5,-0.004 0.0026,0.005 0.0014,0.004 -0.06429,-0.0265 -0.09324,-0.0613 -0.131587,-0.12326 -0.02133,-0.0446 -0.02666,-0.0967 -0.04271,-0.14087 0.01573,0.0687 0.114284,0.0793 0.158519,0.0593 0.03794,-0.0171 0.05895,-0.0635 0.08843,-0.0953 0.0071,-0.0704 0.0046,-0.0979 0.01697,-0.0589 0.0096,0.0302 0.0086,0.0284 0.01659,0.0604 0.01689,0.0409 0.03683,0.0799 0.05212,0.12205 0.02415,0.0648 0.03703,0.1332 0.04466,0.20257 0.0044,0.0326 0.0059,0.0703 0.01718,0.10119 0.0094,0.035 0.02132,0.069 0.03454,0.10223 0.02758,0.0513 0.04117,0.10907 0.05023,0.16747 0.0055,0.0332 0.0079,0.0704 0.01908,0.10211 -0.0011,0.0114 0.04324,0.0725 0.01168,0.0292 -0.108806,-0.0659 -0.07246,-0.0677 -0.240518,0.075 -0.01724,0.0146 0.003,0.0831 -0.01475,0.0334 -0.01724,-0.0421 -0.03398,-0.0841 -0.05265,-0.12541 -0.02499,-0.0431 -0.03984,-0.0927 -0.06227,-0.13721 -0.01346,-0.037 -0.03101,-0.0711 -0.04764,-0.10642 -0.01671,-0.0373 -0.03764,-0.0716 -0.05642,-0.10768 -0.0027,-0.01 -0.02474,-0.0543 -0.02866,-0.0602 -0.0096,-0.0146 -0.0135,-0.0262 -0.0093,-0.0145 -0.02391,-0.0337 -0.0444,-0.0708 -0.06282,-0.10805 -0.02913,-0.0496 -0.0482,-0.10342 -0.06094,-0.16086 -0.0034,-0.0335 -0.01395,-0.0661 -0.0211,-0.0852 -0.0148,-0.0418 -0.02889,-0.0839 -0.04273,-0.12609 -0.01916,-0.0671 -0.03677,-0.14163 -0.01502,-0.21137 0.0076,-0.0244 0.0214,-0.0458 0.03209,-0.0688 0.01771,-0.0175 0.03292,-0.0388 0.05314,-0.0525 0.09256,-0.0626 0.176743,-0.018 0.250914,0.0472 0.04357,0.0402 0.07929,0.0894 0.112662,0.14004 0.02675,0.0489 0.05659,0.0954 0.08546,0.14268 0.03435,0.0484 0.05762,0.10461 0.08264,0.15927 0.0208,0.0499 0.03698,0.10218 0.05261,0.15438 0.01928,0.0339 0.02652,0.075 0.04305,0.11007 0.01747,0.0468 0.0307,0.0957 0.04278,0.1446 0.01066,0.0387 0.02613,0.0753 0.04073,0.11226 -0.0029,0.0135 0.05938,0.14936 0.0185,0.0697 -0.307685,0.13507 -0.258403,0.19356 -0.303815,0.006 -0.0084,-0.0514 -0.02406,-0.10048 -0.03494,-0.15124 -0.0066,-0.0399 -0.01641,-0.0799 -0.02451,-0.11893 -0.0065,-0.035 -0.02381,-0.0645 -0.03989,-0.0946 -0.01508,-0.0336 -0.03058,-0.0677 -0.04229,-0.10299 -0.01572,-0.0474 -0.0043,-0.0218 -0.01298,-0.0407 0.0036,-0.004 -0.02807,-0.0529 -0.02254,-0.0401 -0.03233,-0.04 -0.06105,-0.083 -0.08687,-0.12846 -0.07587,-0.16214 -0.0041,-0.14047 0.229968,-0.24722 0.0125,-0.006 0.07602,0.0925 0.08363,0.10491 0.02736,0.0558 0.05146,0.11334 0.07813,0.16956 0.02233,0.0536 0.0478,0.10504 0.0686,0.15949 0.02454,0.0646 0.04933,0.12889 0.06743,0.19615 0.0074,0.0303 0.012,0.0621 0.02179,0.0917 8.46e-4,0.002 -5.34e-4,-0.006 -0.002,-0.008 -0.01619,-0.0243 -0.03374,-0.0474 -0.0506,-0.0711 -0.284679,0.14573 -0.222701,0.21692 -0.25689,0.0742 -0.01,-0.0515 -0.02692,-0.10067 -0.04086,-0.15088 -0.0098,-0.0357 -0.02073,-0.0681 -0.04145,-0.0972 -0.0215,-0.0348 -0.107054,-0.17013 -0.06566,-0.21237 0.06331,-0.0646 0.156024,-0.0791 0.234036,-0.11867 0.06024,0.0385 0.100634,0.0968 0.133821,0.16349 0.02497,0.0646 0.0377,0.13416 0.0513,0.20266 0.01751,0.0441 0.02553,0.0922 0.03157,0.13964 0.01258,0.0389 0.01151,0.0819 0.02162,0.12123 5.15e-4,0.001 0.0018,0.005 0.0015,0.003 -0.05622,-0.20944 -0.204837,0.007 -0.297349,0.0653 -0.0036,0.002 -9.74e-4,-0.009 -0.0028,-0.0135 -0.01399,-0.0573 -0.03158,-0.11341 -0.04569,-0.17074 -0.009,-0.0404 -0.02192,-0.0768 -0.04406,-0.11002 -0.0874,-0.14529 -0.11364,-0.0776 0.211164,-0.27022 0.01327,-0.008 0.01687,0.0278 0.0253,0.0417 0.03068,0.0572 0.05557,0.1176 0.07381,0.18108 0.01743,0.0468 0.02347,0.0993 0.04228,0.14535 0.01617,0.0434 0.02815,0.0883 0.04041,0.13323 -0.01579,-0.0468 0.01342,0.0494 0.0088,0.0375 -0.0017,-0.004 5.51e-4,-0.0134 -0.0036,-0.0133 -0.0985,0.001 -0.197389,0.003 -0.295134,0.0166 -0.01132,0.002 2.02e-4,0.0371 -0.0047,0.0213 -2.39e-4,0.001 -3.12e-4,0.005 -7.35e-4,0.004 -0.0146,-0.043 -0.02099,-0.0901 -0.03209,-0.13439 -0.0161,-0.0494 -0.02358,-0.10188 -0.04506,-0.14892 -0.01039,-0.0182 -0.01884,-0.0374 -0.03044,-0.0547 -0.0026,-0.004 -0.01065,-0.0151 -0.0077,-0.0115 0.04786,0.0563 -0.05315,-0.009 0.126368,0.0635 0.04756,-0.0518 0.103175,-0.0957 0.142666,-0.15541 0.0095,-0.0144 -0.0039,-0.0356 -0.0045,-0.0535 -2.76e-4,-0.009 0.0066,0.0156 0.0097,0.0235 0.01963,0.0504 0.0029,0.0102 0.01918,0.0486 0.01531,0.046 0.03478,0.0896 0.05416,0.13348 1.11e-4,1.8e-4 0.05003,0.14798 0.02829,0.0931 -0.0872,-0.12973 -0.26569,-0.0606 -0.261681,0.0952 -0.0083,-0.0392 -0.02331,-0.0754 -0.03772,-0.11209 -0.02005,-0.0446 -0.04217,-0.087 -0.05868,-0.13356 -0.006,-0.0172 -0.03666,-0.17299 -0.01763,-0.18297 0.0847,-0.0444 0.180268,-0.0559 0.270402,-0.0839 0.05149,0.06 0.07871,0.13631 0.1083,0.21094 0.01333,0.0341 0.02483,0.0692 0.03323,0.10521 0.0047,0.0203 0.0065,0.0418 0.015,0.0607 0.02298,0.0583 0.03482,0.12016 0.04166,0.18306 0.01141,0.15682 0.01424,0.10525 -0.276888,0.17665 -0.0098,0.002 -0.04127,-0.0772 -0.04373,-0.083 -0.019,-0.0558 -0.02398,-0.11595 -0.03857,-0.17314 -0.01311,-0.0456 -0.01718,-0.0936 -0.02919,-0.13927 -0.0047,-0.0271 -0.01736,-0.0476 -0.03205,-0.0697 0.07741,0.12191 0.246874,0.0594 0.255403,-0.0863 0.0062,0.0398 0.01644,0.0784 0.0253,0.11753 0.01438,0.059 0.02994,0.11775 0.0405,0.17778 0.0041,0.0247 0.002,0.014 0.0059,0.0322 0.04899,0.24093 -0.25527,0.31853 -0.304263,0.0776 v 0 c -0.0068,-0.0344 -0.0036,-0.0167 -0.0095,-0.0529 0.004,-0.0119 10e-4,-0.001 -0.0066,-0.0307 -0.01026,-0.0394 -0.0176,-0.0796 -0.02864,-0.11875 -0.0112,-0.0506 -0.02401,-0.10073 -0.03145,-0.15232 -0.0042,-0.0717 -0.0062,-0.15598 0.05789,-0.20465 0.07854,-0.0596 0.137006,-0.0545 0.208727,-0.006 0.01769,0.012 0.02943,0.0325 0.04414,0.0488 0.03143,0.0526 0.06189,0.10734 0.07436,0.16991 0.01259,0.0489 0.01896,0.0991 0.03137,0.1481 0.0091,0.0403 0.01904,0.0833 0.02351,0.12403 -0.09289,-0.11369 -0.286633,0.2655 -0.276183,0.084 -0.0031,-0.0345 -0.01002,-0.0674 -0.02338,-0.099 -0.01568,-0.0492 -0.02366,-0.10037 -0.04187,-0.14851 -0.01161,-0.0295 -0.0216,-0.0605 -0.03557,-0.0888 -0.0026,-0.005 -0.011,-0.0101 -0.0083,-0.0151 0.0025,-0.005 0.0073,0.007 0.01098,0.0101 0.304891,-0.13486 0.238347,-0.007 0.246373,-0.15001 1.28e-4,-0.002 0.003,0.0379 0.0031,0.0362 0.0057,0.0351 0.04361,0.0782 0.05201,0.11514 0.02111,0.0539 0.04116,0.10813 0.05417,0.16534 0.0031,0.0205 0.009,0.0407 0.0093,0.0614 5.15e-4,0.0349 -0.0086,0.10771 -0.03465,0.13395 -0.101658,0.10228 -0.17743,0.10895 -0.270981,-0.003 -0.02448,-0.0438 -0.04262,-0.0889 -0.05255,-0.13921 -0.02004,-0.0462 -0.04091,-0.0918 -0.05694,-0.14001 -0.01407,-0.0342 -0.06726,-0.15602 -0.05312,-0.1837 0.03515,-0.0688 0.09571,-0.11683 0.14356,-0.17524 0.04109,0.0151 0.08399,0.025 0.123271,0.0453 0.02994,0.0155 0.07826,0.12421 0.09613,0.15662 0.02687,0.0659 0.04472,0.13447 0.06331,0.2037 0.01439,0.0574 0.02641,0.11549 0.0409,0.1729 0.0017,0.0151 0.01257,0.0933 0.0026,0.0969 -0.247628,0.0899 -0.283866,0.14604 -0.315026,-0.005 -0.01068,-0.0392 -0.01811,-0.0702 -0.03338,-0.11032 -0.01799,-0.0552 -0.03225,-0.11187 -0.04911,-0.16754 -0.0086,-0.0362 -0.02589,-0.0688 -0.04179,-0.10156 0.08482,0.0802 -0.0066,-0.003 0.236542,-0.22918 6.26e-4,-5.5e-4 0.01281,0.0199 0.01368,0.0212 0.03293,0.049 0.0112,0.0139 0.03497,0.0534 0.04116,0.0673 0.07187,0.13927 0.08965,0.21868 0.01485,0.0617 0.03493,0.12163 0.0486,0.18364 0.02596,0.14001 0.02444,0.16118 -0.217347,0.24576 -0.04607,0.0161 -0.08346,-0.10899 -0.09274,-0.147 -0.009,-0.0498 -0.01524,-0.10017 -0.02608,-0.1496 -0.0039,-0.0386 -0.01729,-0.0739 -0.02705,-0.11101 -0.0078,-0.0403 -0.01719,-0.0802 -0.02517,-0.12042 0.01473,7.3e-4 -0.041,-0.0388 -9e-5,-0.0114 0.07262,-0.0427 0.15959,-0.0635 0.217868,-0.12817 0.05093,-0.0565 -0.03926,-0.13965 -0.0036,-0.0788 0.004,0.007 0.0084,0.0133 0.01267,0.02 0.04024,0.0622 0.07007,0.12912 0.08933,0.20298 0.01472,0.0545 0.03345,0.10766 0.04409,0.16349 0.0022,0.009 0.02972,0.14506 0.02228,0.15096 -0.07627,0.0605 -0.163832,0.10088 -0.245748,0.15132 -0.0189,-0.0253 -0.03957,-0.0491 -0.05671,-0.0759 -0.02018,-0.0316 -0.02106,-0.0892 -0.03313,-0.12506 -0.01334,-0.0544 -0.03666,-0.1049 -0.055,-0.15729 -0.01722,-0.0454 -0.03914,-0.0879 -0.05725,-0.13286 -0.02207,-0.0468 -0.04411,-0.0935 -0.06344,-0.14172 -0.04527,-0.10379 0.292843,-0.11271 0.212773,-0.2331 0.01379,0.0272 0.03222,0.0503 0.04995,0.0743 0.03404,0.0438 0.065,0.091 0.08301,0.14611 0.0112,0.0323 0.02054,0.0652 0.03413,0.0963 0.02913,0.0545 0.05686,0.11072 0.07082,0.17285 0.01141,0.0465 0.02055,0.0939 0.02978,0.14099 0.009,0.0467 0.02529,0.0915 0.03216,0.13887 0.0091,0.0375 0.01874,0.075 0.02598,0.113 0.02931,0.1539 -0.0011,0.048 -0.268892,0.18793 -0.02602,-0.0453 -0.04577,-0.0922 -0.05847,-0.14438 -0.02083,-0.0531 -0.04223,-0.10603 -0.05643,-0.16201 -0.0076,-0.033 -0.01675,-0.0658 -0.02805,-0.0973 -0.01729,-0.0469 -0.03444,-0.0936 -0.05315,-0.13997 -0.0096,-0.0353 -0.02172,-0.07 -0.03398,-0.10417 -0.01886,-0.0416 -0.03558,-0.0846 -0.06231,-0.12089 -0.02675,-0.0439 -0.05504,-0.0866 -0.07901,-0.1325 -0.01987,-0.0303 -0.04015,-0.0608 -0.06673,-0.0841 0.02112,0.0105 0.08237,0.016 0.119894,-0.0142 0.01336,-0.0108 0.02303,-0.0263 0.03454,-0.0395 0.0052,-0.0144 0.01222,-0.0282 0.01568,-0.0432 0.0023,-0.0102 0.0017,-0.0211 0.0015,-0.0316 -6.6e-5,-0.003 -0.002,-0.012 -0.0023,-0.009 -0.0014,0.0129 0.0064,0.0274 0.008,0.0398 0.01207,0.0372 0.02417,0.0743 0.03745,0.111 0.01691,0.0453 0.03054,0.093 0.03734,0.14162 0.0028,0.0219 0.01274,0.0389 0.02336,0.0576 0.01158,0.0224 0.02409,0.0495 0.0351,0.0648 0.02721,0.0388 0.05297,0.08 0.0699,0.12583 0.01996,0.0407 0.04457,0.0784 0.06261,0.12035 0.0164,0.0364 0.03523,0.0715 0.04899,0.10938 0.02033,0.0463 0.03909,0.0934 0.06259,0.13793 0.02268,0.0504 0.04296,0.10169 0.0638,0.15306 0.01263,0.0354 0.0527,0.15834 0.02595,0.18905 -0.158873,0.18238 -0.139927,0.16312 -0.263461,0.0978 -0.05432,-0.0605 -0.08479,-0.11922 -0.109076,-0.20021 -0.01078,-0.0462 -0.02095,-0.0932 -0.02664,-0.14051 -0.0034,-0.0299 -0.01302,-0.0554 -0.02732,-0.0814 -0.01952,-0.0491 -0.03655,-0.0997 -0.05022,-0.15126 -0.0115,-0.0503 -0.0221,-0.10155 -0.02629,-0.1533 -0.0039,-0.0399 -0.01107,-0.0791 -0.02537,-0.11618 -0.01665,-0.0546 -0.05312,-0.10019 -0.06276,-0.15821 -0.01661,-0.0755 -0.04963,-0.13091 -0.02461,-0.21496 0.03101,-0.0364 0.05211,-0.0884 0.09304,-0.10908 0.105855,-0.0534 0.200066,0.043 0.241518,0.13609 0.01284,0.0356 0.02438,0.0719 0.03124,0.10959 1.71e-4,0.001 -0.0012,-0.001 -0.0018,-0.002 -0.0021,-0.004 -0.0042,-0.007 -0.0063,-0.0112 -0.0093,-0.0115 -0.02392,-0.0333 -0.03995,-0.0337 -0.0028,-5e-5 0.005,0.003 0.0077,0.004 0.05359,0.0246 0.02014,0.006 0.07204,0.0385 0.05042,0.0427 0.0909,0.0926 0.115801,0.15849 0.01985,0.0533 0.05327,0.10056 0.05633,0.16115 0.0054,0.0392 0.007,0.0791 0.01605,0.11756 0.01344,0.0529 0.02408,0.10682 0.03002,0.16148 0.0014,0.0361 0.0034,0.0724 0.0112,0.10759 0.0094,0.0412 0.0153,0.0831 0.02652,0.12364 0.01032,0.0365 0.01914,0.0731 0.03475,0.10747 0.01993,0.0503 0.03497,0.10201 0.04476,0.15593 0.01382,0.0537 0.02559,0.10857 0.02952,0.16446 0.01215,0.13905 -0.314029,-0.0782 -0.303892,0.0742 7.54e-4,0.0113 -0.0032,-0.0224 -0.005,-0.0335 -0.0021,-0.0136 -0.0039,-0.0273 -0.0059,-0.0409 -0.01193,-0.0969 -0.01786,-0.19469 -0.03386,-0.291 -0.03628,-0.24374 0.271532,-0.30119 0.307808,-0.0574 z"
       id="path3747" />
    <path
       inkscape:export-ydpi="17.531469"
       inkscape:export-xdpi="17.531469"
       style="stroke-width:0.0435874"
       inkscape:connector-curvature="0"
       d="m 96.328785,158.36779 c 0.06914,0.0498 0.140295,0.0957 0.211754,0.14111 0.06229,0.0406 0.125493,0.079 0.186765,0.1216 0.04459,0.0255 0.08928,0.0538 0.137021,0.0713 0.06148,0.0182 0.122096,0.0399 0.182691,0.0614 0.07036,0.0277 0.137686,0.065 0.20226,0.10657 0.04071,0.027 0.08361,0.0494 0.125403,0.0741 0.03506,0.018 0.07205,0.0321 0.109292,0.0436 0.05205,0.0174 0.102503,0.0371 0.150614,0.0655 0.115779,0.0486 -0.05609,0.2432 -0.09473,0.33322 -0.0032,0.008 -0.01486,-0.002 -0.02221,-0.003 -0.03878,-0.007 -0.03865,-0.009 -0.07818,-0.0205 -0.09406,-0.0225 -0.178068,-0.0734 -0.261634,-0.12459 -0.09653,-0.0603 -0.199694,-0.10379 -0.30235,-0.14847 -0.103178,-0.0384 -0.197567,-0.0979 -0.291243,-0.15848 -0.08401,-0.0564 -0.170185,-0.10855 -0.25487,-0.16365 -0.0561,-0.0348 -0.115411,-0.0617 -0.174769,-0.0885 -0.0717,-0.0298 -0.140743,-0.0669 -0.210817,-0.10109 -0.05845,-0.025 -0.119722,-0.042 -0.180662,-0.0578 -0.06915,-0.018 -0.133895,-0.0514 -0.196777,-0.0875 -0.03409,-0.0176 -0.06416,-0.0474 -0.100954,-0.058 -0.123614,-0.0447 -0.06658,-0.0549 0.0219,-0.35032 0.0059,-0.0198 0.105359,0.0214 0.118224,0.0273 0.05373,0.0294 0.104828,0.0632 0.15965,0.0901 0.06566,0.0366 0.133203,0.0684 0.200377,0.10123 0.05712,0.0255 0.115447,0.0473 0.172482,0.0731 0.04649,0.0189 0.09234,0.0394 0.138027,0.0606 0.0435,0.0171 0.08736,0.0335 0.130578,0.0517 0.05797,0.0197 0.113561,0.0458 0.167717,0.0761 0.05107,0.0268 0.100426,0.0566 0.147034,0.0922 0.05259,0.0437 0.11089,0.0768 0.170268,0.10713 0.06349,0.0367 0.131416,0.0614 0.196777,0.0932 0.04986,0.0175 0.09413,0.0524 0.143406,0.0706 0.04804,0.022 0.09704,0.0413 0.144891,0.0638 0.029,0.0125 0.05683,0.0296 0.08738,0.0369 0.03738,0.005 0.07459,0.008 0.11169,0.0158 0.04179,0.0175 0.08866,0.0223 0.129228,0.0437 0.0141,0.007 0.02696,0.0175 0.04044,0.0263 0.01966,0.0301 0.04809,0.055 0.05896,0.0902 0.03904,0.12665 -0.03947,0.20845 -0.12822,0.25597 -0.0523,0.022 -0.106291,0.0388 -0.161243,0.0501 -0.05414,0.01 -0.109031,0.0121 -0.163781,0.0132 -0.04733,5.5e-4 -0.09465,1.8e-4 -0.141976,1.8e-4 -0.04416,-10e-5 -0.08832,-1.4e-4 -0.132476,-1.4e-4 -0.04171,-1e-5 -0.08341,-1e-5 -0.125113,-1e-5 -0.0389,-0.003 -0.07639,0.002 -0.114666,0.009 -0.0419,0.008 -0.08429,0.008 -0.125832,0.0173 -0.04221,0.007 -0.08287,0.0206 -0.124625,0.03 -0.05636,0.0119 -0.113346,0.0144 -0.170387,0.0101 -0.04154,-0.009 -0.08061,-0.01 -0.123144,-0.0139 -0.03767,-0.004 -0.07548,-0.005 -0.113271,-0.005 -0.130889,-0.002 -0.01769,0.008 -0.01259,-0.34983 3.9e-5,-0.004 -0.01199,0.004 -0.01096,-1.9e-4 9.2e-4,-0.004 0.0079,-0.002 0.01177,-0.003 0.03443,-0.004 0.06624,-0.0159 0.09848,-0.0289 0.04712,-0.0249 0.100645,-0.0219 0.149774,-0.0359 0.05311,-0.0123 0.107012,-0.0187 0.161072,-0.0225 0.04598,-0.003 0.09203,-0.003 0.138055,-0.003 0.03486,0.003 0.0677,-0.006 0.102053,-0.012 0.0083,-0.001 0.01657,-0.002 0.02489,-0.003 0.06318,-0.008 -0.009,-0.002 -0.02153,0.0159 -0.02971,0.0432 -0.05823,0.0918 -0.06684,0.14553 -0.0051,0.0319 0.0192,0.0612 0.02879,0.0917 0.01375,0.0132 0.02754,0.0265 0.04131,0.0397 0.0022,0.002 0.0076,0.002 0.0063,0.005 -0.0015,0.003 -0.0057,-1.8e-4 -0.0085,-5.5e-4 -0.01966,-0.001 -0.03925,-0.002 -0.05895,-0.002 -0.04929,-0.003 -0.09791,0.004 -0.147126,0.004 -0.06163,0.002 -0.122384,-0.005 -0.183099,-0.0156 -0.05461,-0.0154 -0.10796,-0.0357 -0.161491,-0.0552 -0.04079,-0.0115 -0.08046,-0.0292 -0.121413,-0.0397 -0.157507,-0.0325 -0.05958,-0.0263 0.0688,-0.30189 -0.0074,-0.008 -0.01876,-0.0123 -0.02226,-0.0229 -0.0019,-0.006 0.01105,0.004 0.01671,0.006 0.0075,0.002 0.01511,0.005 0.02277,0.007 0.02907,0.007 0.05854,0.0116 0.08807,0.0158 0.01315,0.002 0.02629,0.005 0.03941,0.008 0.01055,0.002 0.021,0.005 0.03156,0.007 0.0033,5.5e-4 0.01322,7.3e-4 0.0099,5.5e-4 -0.04819,-0.002 -0.08157,-0.0108 -0.122843,0.0592 -0.02482,0.0421 -0.0178,0.0989 -0.02667,0.14836 0.03248,0.07 -0.04042,-0.0313 -0.04313,-0.0348 -0.03506,-0.0409 -0.06562,-0.0867 -0.101908,-0.12623 -0.113039,-0.11839 -0.07942,-0.0628 0.173066,-0.3026 0.0083,-0.008 0.01946,0.0108 0.02911,0.0163 0.01208,0.007 0.02406,0.0141 0.0361,0.0211 0.02991,0.0147 0.05756,0.0347 0.08759,0.049 0.0028,10e-4 0.01133,0.005 0.0088,0.002 -0.02187,-0.0169 -0.08617,0.001 -0.0874,0.001 -0.03225,0.0474 -0.07856,0.0861 -0.09674,0.14209 -0.01019,0.0314 0.0164,0.0646 0.01881,0.0978 5.51e-4,0.006 -0.0084,-0.009 -0.01276,-0.0135 -0.02727,-0.0276 -0.05654,-0.0521 -0.08564,-0.0772 -0.05298,-0.0489 -0.155171,-0.13855 -0.11734,-0.23449 0.06982,-0.17704 0.107854,-0.15144 0.215594,-0.14306 0.08064,0.0285 0.154323,0.0771 0.230137,0.1186 0.03433,0.0197 0.07192,0.0357 0.103567,0.0609 0.0112,0.009 0.0399,0.016 0.03225,0.0288 -0.05816,0.0972 -0.138075,0.1757 -0.207116,0.26356 -0.03075,-0.0202 -0.06479,-0.0638 -0.0925,-0.0738 0.165375,0.005 0.117028,0.04 0.199894,-0.21351 0.0064,-0.0195 -0.03584,-0.0523 0.0042,-0.0173 0.0045,0.004 0.0094,0.007 0.01412,0.0111 0.0049,0.006 0.08481,0.0672 0.08212,0.0728 -0.142983,0.29505 -0.08726,0.30247 -0.204432,0.27151 -0.04459,-0.01 -0.08833,-0.0249 -0.13405,-0.0254 -0.08559,0.008 -0.156866,-0.0407 -0.223332,-0.0941 -0.03855,-0.0291 -0.07782,-0.0605 -0.120789,-0.0811 -0.0089,-0.005 -0.01789,-0.011 -0.02686,-0.0164 -0.0439,-0.0265 0.01094,0.0114 0.03907,0.002 0.02871,-0.01 0.05413,-0.0291 0.08119,-0.0437 0.02704,-0.0675 0.05377,-0.0871 0.04061,-0.14857 -0.0029,-0.0136 -0.0086,-0.0264 -0.01388,-0.0391 -0.0066,-0.016 -0.01524,-0.0183 -0.01171,-0.0189 0.0033,-5.5e-4 0.0062,0.003 0.0092,0.005 0.05121,0.0158 0.103369,0.0268 0.154937,0.0409 0.06934,0.0138 0.134618,0.0397 0.197484,0.0747 0.05683,0.0358 0.105841,0.0842 0.158535,0.12676 -0.310689,0.0596 -0.133304,-0.028 -0.0594,-0.0432 0.04634,-0.01 0.05461,-0.006 0.106804,-0.004 0.07632,0.004 0.151559,0.0189 0.226269,0.0357 0.0047,0.001 0.01517,-0.002 0.01414,0.003 -0.0219,0.1147 -0.03968,0.23198 -0.07975,0.34034 -0.0056,0.0151 -0.02873,-0.005 -0.0431,-0.008 -0.04658,-0.009 -0.09116,-0.0201 -0.136596,-0.0346 -0.0127,-0.005 -0.02543,-0.009 -0.03816,-0.0136 -0.05651,-0.0199 -0.02192,-0.007 -0.08279,-0.0309 -0.01215,-0.005 -0.02423,-0.01 -0.03649,-0.0144 -0.02467,-0.009 -0.02658,-0.0111 -0.01819,-0.004 0.10586,0.0105 0.03495,0.0106 0.155555,-0.24625 0.0029,-0.006 -0.0091,-0.0111 -0.0093,-0.018 -1.21e-4,-0.004 0.0059,0.005 0.0089,0.008 0.01517,0.0122 0.0103,0.009 0.02544,0.0164 0.04427,0.0274 0.08951,0.0526 0.138934,0.0655 -0.04935,-0.0461 -0.182678,0.14641 -0.08852,0.0188 0.05768,-0.0623 0.131072,-0.0749 0.207431,-0.08 0.06459,-0.007 0.127161,0.006 0.18871,0.0265 0.04475,0.01 0.08243,0.0399 0.12441,0.0572 0.03346,0.0191 0.06989,0.0287 0.105589,0.0408 0.0369,0.009 0.07268,0.0222 0.109722,0.0301 0.03211,0.006 0.0647,0.006 0.09714,0.007 0.04055,5.5e-4 0.08111,1.8e-4 0.121668,1.7e-4 0.04112,-0.001 0.08182,-1.8e-4 0.122739,0.004 0.218667,0.0331 0.176863,0.37941 -0.0418,0.34631 v 0 c 0.0092,-0.004 0.0037,-0.001 -0.01804,-0.001 -0.01443,2e-5 -0.02708,4e-5 -0.04151,5e-5 -0.0069,10e-6 -0.01385,3e-5 -0.02078,4e-5 -0.04266,9e-5 -0.08533,1.8e-4 -0.12799,-1.8e-4 -0.05107,-0.001 -0.102326,-0.003 -0.152668,-0.0137 -0.04702,-0.0108 -0.09296,-0.0261 -0.139627,-0.0385 -0.04474,-0.0153 -0.09037,-0.0283 -0.13253,-0.0516 -0.03271,-0.0155 -0.06329,-0.0363 -0.09756,-0.0465 -0.02692,-0.009 -0.05091,-0.0172 -0.07997,-0.0118 -0.05327,0.003 -0.02466,0.003 0.0017,-0.0286 0.0034,-0.006 0.0066,-0.0111 0.01019,-0.0165 0.0017,-0.003 -0.0028,0.006 -0.005,0.009 -0.02017,0.0234 -0.03686,0.0521 -0.06176,0.0688 -0.03399,0.0229 -0.07473,0.0293 -0.113143,0.0256 -0.01526,-10e-4 -0.03033,-0.005 -0.04549,-0.007 -0.07494,-0.0222 -0.146013,-0.0554 -0.213323,-0.0986 -0.01869,-0.0123 -0.148797,-0.1048 -0.141922,-0.13317 0.07123,-0.29382 0.03365,-0.28137 0.15749,-0.27804 0.07546,0.0156 0.145681,0.0494 0.219059,0.0739 0.03373,0.0117 0.06672,0.0188 0.101531,0.0255 0.0094,0.002 0.02794,-0.005 0.02803,0.006 0.003,0.35846 0.07545,0.37277 -0.0345,0.34553 -0.06103,-0.014 -0.122522,-0.0264 -0.18495,-0.0295 -0.0086,-0.004 -0.03523,0.003 -0.02788,-0.004 0.0057,-0.005 0.02554,-0.0133 0.01828,-0.0134 -0.207796,-7.3e-4 -0.127309,0.0509 -0.199996,-0.001 -0.04031,-0.0328 -0.07879,-0.0683 -0.119756,-0.0999 -0.03906,-0.0267 -0.08489,-0.0335 -0.128627,-0.0455 -0.07528,-0.0218 -0.153858,-0.0328 -0.224812,-0.0707 -0.06187,-0.0379 -0.113729,-0.0813 -0.138425,-0.15963 -0.0063,-0.0202 -0.01287,-0.0424 -0.009,-0.0633 0.0082,-0.0446 0.02929,-0.0849 0.04393,-0.1273 0.03138,-0.0196 0.06016,-0.0456 0.09413,-0.0587 0.05305,-0.0204 0.12453,0.013 0.170285,0.0438 0.05952,0.0325 0.11695,0.0706 0.170586,0.11413 0.01088,0.009 0.02343,0.0158 0.03316,0.0264 0.005,0.005 -0.01392,-7.4e-4 -0.02085,0 -0.01254,0.001 0.112152,0.009 0.03774,0.001 0.06769,0.003 0.133589,0.0178 0.199345,0.0355 0.0123,0.003 0.04133,-0.003 0.03689,0.0105 -0.261352,0.7836 -0.20001,0.16439 -0.109995,0.3184 0.005,0.009 -0.01543,-0.011 -0.02292,-0.0168 -0.0086,-0.007 -0.01706,-0.0139 -0.02544,-0.021 -0.0057,-0.005 -0.01125,-0.0101 -0.01684,-0.0152 -0.02592,-0.0219 -0.130627,-0.11378 -0.124042,-0.14928 0.05111,-0.27551 0.03774,-0.23458 0.205665,-0.23721 0.05322,0.0243 0.100633,0.0586 0.142974,0.1022 -0.05656,0.0965 -0.118949,0.1891 -0.169678,0.28963 -0.0033,0.007 0.01138,0.009 0.01699,0.0129 0.0022,0.002 -0.0045,-0.004 -0.0069,-0.005 -0.02314,-0.0145 -0.04661,-0.0285 -0.07106,-0.0401 -0.05444,-0.0299 -0.108895,-0.0598 -0.162302,-0.0918 0.01467,-0.001 0.03265,0.007 0.04403,-0.003 0.136137,-0.12471 0.137272,-0.11254 0.09208,-0.26044 -0.0019,-0.006 -0.0077,-0.0102 -0.01256,-0.0139 -0.01396,-0.0106 0.07733,0.0778 0.03803,0.0374 0.06646,0.0574 0.220138,0.17962 0.200543,0.29085 -0.0112,0.0636 -0.06517,0.10711 -0.09775,0.16066 -0.03032,0.005 -0.06036,0.0136 -0.09098,0.0142 -0.05784,0.001 -0.127152,-0.0575 -0.179682,-0.0816 -0.01052,-0.006 -0.021,-0.0125 -0.03156,-0.0185 -0.01238,-0.007 -0.04297,-0.007 -0.03724,-0.0211 0.132029,-0.32721 0.100776,-0.35384 0.197008,-0.25068 0.04163,0.0479 0.07999,0.0992 0.120122,0.14873 0.01249,0.0193 0.02933,0.0339 0.04376,0.0514 0.02474,0.03 0.04406,0.0642 0.05714,0.10234 -0.0072,0.0554 0.0038,0.11797 -0.02173,0.16605 -0.05584,0.10522 -0.164561,0.0799 -0.247201,0.0626 -0.100865,-0.0148 -0.201196,-0.0337 -0.284838,-0.10365 0.125561,-0.35713 0.03473,-0.33126 0.230522,-0.28448 0.04657,0.0145 0.09254,0.0308 0.139061,0.0456 0.03765,0.0142 0.07679,0.0255 0.113375,0.0421 0.04371,0.008 0.08686,0.0139 0.131386,0.0112 0.05184,-1.4e-4 0.103378,-0.008 0.155326,-0.004 0.0528,0.001 0.131237,-7.3e-4 0.17845,0.0267 0.02604,0.0152 0.04874,0.0367 0.07311,0.055 0.015,0.0377 0.04808,0.0719 0.04496,0.11305 -0.01177,0.15471 -0.0921,0.19834 -0.202081,0.20925 -0.04894,0.008 -0.09775,0.0193 -0.14754,0.0158 -0.03977,5e-5 -0.07956,4e-5 -0.119291,0.002 -0.04126,0.003 -0.08238,0.008 -0.122878,0.0172 -0.03391,0.006 -0.0687,0.009 -0.101417,0.0212 -0.04634,0.0187 -0.0932,0.0352 -0.142193,0.0426 -0.0093,0.002 -0.06191,0.0145 -0.06253,0.0101 -0.05087,-0.36068 -0.106861,-0.35063 0.01692,-0.34904 0.0455,7.4e-4 0.09103,0.002 0.136375,0.007 0.04221,0.004 0.08474,0.006 0.126469,0.0143 0.02399,0.001 0.05321,-1.9e-4 0.07906,-0.005 0.04216,-0.009 0.08315,-0.0239 0.125797,-0.0302 0.04635,-0.01 0.09301,-0.0136 0.139778,-0.0199 0.05305,-0.009 0.106107,-0.0154 0.15984,-0.0124 0.04174,0 0.08349,0 0.12524,1e-5 0.0443,2e-5 0.08861,5e-5 0.132917,1.4e-4 0.04534,9e-5 0.09069,1.8e-4 0.136035,-1.4e-4 0.03826,-7.3e-4 0.07664,-0.002 0.114577,-0.008 0.0295,-0.005 0.05746,-0.0158 0.08635,-0.024 0.0042,-10e-4 0.01486,-0.01 0.01191,-0.006 -0.02791,0.0343 -0.04627,0.0328 -0.05421,0.0919 -0.01298,0.0967 0.01112,0.10084 0.06108,0.17152 0.0075,0.004 0.01478,0.009 0.0225,0.0121 0.0019,7.4e-4 0.008,0.001 0.006,7.4e-4 -0.02493,-0.008 -0.05118,-0.0127 -0.07497,-0.0247 -0.04394,-0.009 -0.08913,-0.008 -0.132751,-0.021 -0.04634,-0.014 -0.09073,-0.0336 -0.13465,-0.0552 -0.04207,-0.0241 -0.09034,-0.0351 -0.132964,-0.0583 -0.05258,-0.024 -0.102514,-0.0542 -0.155845,-0.0764 -0.06656,-0.0334 -0.136909,-0.0571 -0.201566,-0.0956 -0.07579,-0.0393 -0.150287,-0.082 -0.217809,-0.13752 -0.03417,-0.0276 -0.07269,-0.0466 -0.110233,-0.0677 -0.04389,-0.0255 -0.08975,-0.0442 -0.136895,-0.0609 -0.04626,-0.0198 -0.09339,-0.0369 -0.139916,-0.0558 -0.04508,-0.021 -0.09042,-0.041 -0.136286,-0.0598 -0.0592,-0.0275 -0.12068,-0.0486 -0.179758,-0.0765 -0.06729,-0.0331 -0.135202,-0.0646 -0.200964,-0.10153 -0.05309,-0.0263 -0.104199,-0.056 -0.154777,-0.0877 -0.02724,-0.0138 0.03013,0.009 0.03166,-0.002 0.05211,-0.34994 -0.05385,-0.36614 0.04805,-0.32903 0.05082,0.0201 0.09831,0.0471 0.144353,0.0784 0.04032,0.0232 0.08124,0.0463 0.125585,0.0582 0.07922,0.021 0.158839,0.0431 0.234289,0.0777 0.06738,0.0329 0.133749,0.0687 0.202727,0.0973 0.07319,0.0331 0.146074,0.0672 0.214985,0.11058 0.08432,0.055 0.170263,0.1069 0.253986,0.16307 0.07996,0.0517 0.159895,0.10359 0.24838,0.13545 0.115163,0.0503 0.230683,0.0999 0.338944,0.16755 0.06278,0.0385 0.12397,0.0792 0.195254,0.0944 0.01226,0.004 0.02384,0.008 0.03642,0.0109 0.0066,10e-4 0.02124,-0.004 0.01983,0.003 -0.0665,0.34069 -0.0098,0.36869 -0.100605,0.31605 0.01566,0.004 -0.01033,-0.007 -0.01572,-0.009 -0.009,-0.003 -0.01813,-0.006 -0.0272,-0.009 -0.0076,-0.003 -0.01524,-0.006 -0.02282,-0.008 -0.0047,-0.002 -0.0094,-0.004 -0.01412,-0.006 -0.058,-0.0188 -0.115847,-0.0403 -0.169869,-0.0708 -0.04599,-0.0273 -0.09322,-0.052 -0.13789,-0.0819 -0.04334,-0.0302 -0.09117,-0.0532 -0.13837,-0.0746 -0.06431,-0.0229 -0.128784,-0.0451 -0.193724,-0.0656 -0.06763,-0.0283 -0.133356,-0.0632 -0.196029,-0.10325 -0.0578,-0.0402 -0.117551,-0.0762 -0.176275,-0.11462 -0.07793,-0.0495 -0.155455,-0.0998 -0.230771,-0.15423 -0.183596,-0.13706 -0.0105,-0.42783 0.173096,-0.29076 z"
       id="path3751" />
    <path
       inkscape:export-ydpi="17.531469"
       inkscape:export-xdpi="17.531469"
       style="stroke-width:0.0435874"
       inkscape:connector-curvature="0"
       d="m 88.907394,159.94823 c 5.33e-4,0.083 -0.0029,0.16591 0.0051,0.24851 0.0043,0.0637 -2.39e-4,0.12754 -0.0028,0.19122 0.0012,0.0536 -0.0094,0.10589 -0.0166,0.15852 -0.0062,0.0507 -0.01698,0.10039 -0.02253,0.1512 -0.004,0.0419 -0.0045,0.084 -0.0048,0.12601 -0.0012,0.19583 0.02987,0.0943 -0.312033,0.072 -0.01332,-0.0449 -0.01299,-0.10659 -0.0108,-0.15788 -0.0018,-0.0663 0.01564,-0.13184 0.0167,-0.19756 3.12e-4,-0.0589 0.008,-0.11733 0.01129,-0.17607 0.0082,-0.0606 0.01697,-0.12077 0.02117,-0.18187 0.0071,-0.0593 0.01654,-0.11818 0.02108,-0.17785 0.003,-0.0456 0.003,-0.0913 0.0032,-0.137 -0.0026,-0.0657 0.0026,-0.13062 0.0109,-0.19558 0.006,-0.0513 0.01247,-0.10236 0.02046,-0.1533 -0.01142,-0.0305 0.0055,-0.0813 -8.09e-4,-0.11116 -0.0068,-0.0535 -0.0035,-0.10695 0.0024,-0.16033 0.0071,-0.0576 0.0191,-0.11491 0.03433,-0.17052 0.08534,-0.18568 0.147446,-0.12388 0.308317,-0.003 0.01163,0.009 0.01765,0.1024 0.01892,0.12179 0.0021,0.0593 0.0014,0.11878 10e-4,0.17816 -2.94e-4,0.0545 -4.04e-4,0.10898 -4.78e-4,0.16348 -4.1e-5,0.0489 -4.1e-5,0.0977 -4.1e-5,0.14659 2e-6,0.0547 4e-6,0.10946 5e-6,0.16419 0,0.0589 10e-7,0.11781 10e-7,0.17672 0.0013,0.0618 8.2e-5,0.1231 -0.0075,0.18442 -0.0059,0.0556 -0.01498,0.11057 -0.02391,0.16566 -0.0074,0.0485 -0.0083,0.0976 -0.01382,0.14624 -0.0035,0.0448 -0.01839,0.0897 -0.01972,0.13459 -8.2e-5,0.0368 7.73e-4,0.0736 0.0014,0.11047 -0.0014,0.0696 -0.01554,0.13714 -0.02922,0.20465 -0.0045,0.0447 -0.01881,0.0871 -0.02668,0.13099 -0.0073,0.0462 -0.02009,0.0916 -0.03621,0.13489 -0.188244,-0.0322 -0.293218,0.0572 -0.300522,-0.0888 -0.0023,-0.0464 0.0054,-0.0896 0.01186,-0.13493 0.01067,-0.0477 0.02423,-0.0945 0.0356,-0.14199 0.0085,-0.0612 0.0121,-0.123 0.0198,-0.18441 0.0075,-0.0602 0.01143,-0.1209 0.01349,-0.18164 -0.0029,-0.0434 0.01983,-0.088 0.01378,-0.13109 6.81e-4,-0.24709 0.312725,-0.24603 0.312052,0.001 v 0 c -0.0013,0.0483 -0.0043,0.0962 -0.01401,0.14357 -0.0026,0.0725 -0.0073,0.1449 -0.0163,0.21678 -0.0096,0.0762 -0.01172,0.15348 -0.02795,0.22848 -0.0085,0.0341 -0.01743,0.0751 -0.02836,0.1047 -0.0019,0.0135 -0.0043,0.0307 -0.0067,0.0444 -4.42e-4,0.002 -5.89e-4,0.01 -0.0016,0.008 -0.0024,-0.006 0.0022,-0.0183 -0.0035,-0.0187 -0.09596,-0.007 -0.191998,-0.0124 -0.287996,-0.0186 -0.01874,0.0576 0.01537,-0.0501 0.01156,-0.0555 0.009,-0.045 0.02218,-0.0884 0.02735,-0.13433 0.0082,-0.0402 0.01753,-0.08 0.02149,-0.12099 -8.46e-4,-0.0537 -0.0032,-0.10754 0.0011,-0.1611 0.0061,-0.0471 0.01305,-0.0941 0.02051,-0.14101 0.01113,-0.0462 0.0015,-0.11032 0.01554,-0.15793 0.0083,-0.0507 0.01691,-0.10119 0.022,-0.15251 0.006,-0.0448 0.0045,-0.0897 0.0044,-0.13497 0,-0.0589 0,-0.11781 -10e-7,-0.17672 0,-0.0547 -3e-6,-0.10945 -5e-6,-0.16419 0,-0.049 -4e-6,-0.098 4.1e-5,-0.14707 8.3e-5,-0.0551 1.72e-4,-0.11013 4.79e-4,-0.1652 2.94e-4,-0.051 8.45e-4,-0.10211 -4.05e-4,-0.15314 -6.99e-4,-0.0164 -9.93e-4,-0.0219 -6.99e-4,-0.0218 0.0028,0.001 0.0014,0.008 0.0042,0.009 0.126265,0.0574 0.210137,0.15703 0.274644,-0.0112 2.02e-4,-0.003 0.0011,-0.0105 6.07e-4,-0.008 -0.0073,0.0347 -0.0146,0.0697 -0.01928,0.10484 -0.0012,0.0109 -0.0053,0.0215 -0.0052,0.0325 3.67e-4,0.0268 0.0057,0.0535 0.0052,0.0804 -6.81e-4,0.0586 -0.0018,0.11678 -0.0039,0.17537 -0.0074,0.0473 -0.01366,0.0945 -0.01887,0.14217 -0.0063,0.0492 -0.01064,0.0977 -0.0078,0.14756 -2.03e-4,0.0554 -4.6e-4,0.11084 -0.0044,0.1661 -0.0047,0.0586 -0.01196,0.11679 -0.02085,0.17477 -0.0042,0.0594 -0.01009,0.1186 -0.02085,0.17697 -0.0035,0.059 -0.0109,0.11759 -0.01133,0.17668 -0.0047,0.0647 -0.0153,0.12855 -0.01649,0.19368 -4.78e-4,0.008 -0.0029,0.0159 -0.0026,0.0239 0.0015,0.0389 0.01559,0.0766 0.01386,0.11597 -0.338392,0.0227 -0.312451,0.12312 -0.312055,-0.0768 5.15e-4,-0.0555 0.0015,-0.11108 0.0073,-0.16627 0.0062,-0.0542 0.01656,-0.10737 0.0238,-0.16128 0.0057,-0.0403 0.01475,-0.0793 0.01318,-0.12029 0.0019,-0.0463 0.005,-0.0927 0.0042,-0.13911 -0.0086,-0.0948 -0.0073,-0.18975 -0.0068,-0.28496 0,-0.24711 0.312053,-0.24711 0.312053,0 z"
       id="path3753" />
    <path
       inkscape:export-ydpi="17.531469"
       inkscape:export-xdpi="17.531469"
       style="stroke-width:0.0435874"
       inkscape:connector-curvature="0"
       d="m 89.82275,159.74134 c 0,0.0949 0,0.18975 0,0.28463 0.0011,0.0656 0.001,0.13056 -0.0079,0.19549 -0.0051,0.0494 -0.01495,0.0974 -0.0261,0.14549 -0.0057,0.0291 -0.0063,0.0591 -0.0072,0.0888 5.33e-4,0.0542 -10e-4,0.10767 -0.0086,0.16126 -0.02502,0.13721 -0.04603,0.11798 -0.276016,0.11779 -0.03327,-3e-5 -0.0561,-0.12051 -0.0615,-0.14844 -0.0166,-0.0606 -0.02211,-0.12227 -0.01923,-0.1854 0.0044,-0.0457 0.0081,-0.0915 0.0098,-0.13745 0.0012,-0.0537 7.54e-4,-0.1072 0.0048,-0.16074 0.0052,-0.0585 0.01681,-0.11552 0.02844,-0.17269 0.0069,-0.0354 0.0083,-0.0716 0.0093,-0.10765 0.0035,-0.0447 0.01471,-0.0877 0.01848,-0.13239 0.0026,-0.0395 0.0027,-0.0791 0.0029,-0.11861 8.2e-5,-0.0462 0,-0.0925 -4.1e-5,-0.13868 0.0041,-0.0429 0.0071,-0.0849 0.0052,-0.1279 0.0014,-0.0549 -0.0038,-0.12237 0.0178,-0.17414 0.01076,-0.0258 0.02629,-0.0487 0.03943,-0.0731 0.14505,-0.18621 0.380205,0.0435 0.235155,0.22972 v 0 c 0.0077,-0.0174 0.01646,-0.0343 0.02322,-0.0523 0.0013,-0.003 0.0013,-0.0147 6.8e-4,-0.0111 -0.0038,0.0214 -0.0064,0.0429 -0.0046,0.0644 0.0019,0.0471 0.0036,0.0979 -0.0048,0.14397 4.1e-5,0.047 1.71e-4,0.094 4.1e-5,0.14093 -2.39e-4,0.0508 -5.15e-4,0.10165 -0.0045,0.15228 -0.0033,0.0351 -0.0074,0.0789 -0.01704,0.10876 -0.0018,0.0583 -0.0054,0.11671 -0.01699,0.17375 -0.0089,0.0434 -0.01855,0.0863 -0.02224,0.1308 -0.0079,0.0455 0.0021,0.094 -0.0034,0.14005 -0.0019,0.0484 -0.0052,0.0968 -0.0102,0.14496 -3.68e-4,0.003 1.71e-4,0.007 -0.0011,0.01 -4.59e-4,0.001 -0.0019,-0.004 -0.0019,-0.003 0.0014,0.0306 0.0135,0.06 0.01738,0.0901 -0.0027,0.0175 -0.0153,-0.0433 -0.03102,-0.0406 -0.296846,0.0512 -0.251398,0.1111 -0.24599,0.08 0.006,-0.0383 0.0035,-0.0773 0.0047,-0.11641 0.0017,-0.0557 0.0048,-0.11162 0.0172,-0.16584 0.0088,-0.0373 0.01641,-0.0727 0.01981,-0.112 0.0071,-0.0463 0.003,-0.0934 0.004,-0.14039 0,-0.0949 0,-0.18975 0,-0.28463 0,-0.2471 0.312053,-0.2471 0.312053,0 z"
       id="path3755" />
    <path
       inkscape:export-ydpi="17.531469"
       inkscape:export-xdpi="17.531469"
       style="stroke-width:0.0435874"
       inkscape:connector-curvature="0"
       d="m 93.252204,160.2902 c -0.0085,0.0919 -0.01032,0.18445 -0.01873,0.27636 -0.0091,0.0637 -0.01331,0.12823 -0.02242,0.19194 -0.0085,0.0405 -0.01389,0.0815 -0.01636,0.12298 0.0024,0.036 -0.0085,0.0761 -3.12e-4,0.11132 0.0079,0.0555 0.01114,0.11193 0.01107,0.16807 -0.05579,0.18693 -0.0027,0.10316 -0.313514,0.0119 -0.0013,-5.5e-4 -0.01881,-0.0883 -0.02028,-0.097 -0.0091,-0.0591 -0.01062,-0.11908 -0.01148,-0.17889 -4.78e-4,-0.0528 -3.12e-4,-0.10563 -2.39e-4,-0.15845 -0.0035,-0.0665 0.0082,-0.13057 0.02579,-0.19362 0.009,-0.0418 0.02278,-0.0821 0.03042,-0.12425 0.0053,-0.035 0.0058,-0.0706 0.0063,-0.10599 -0.0035,-0.0432 0.0067,-0.0895 -0.0015,-0.13206 -0.01179,-0.0597 -0.0082,-0.12051 -0.004,-0.18087 0.0033,-0.0431 0.0044,-0.0863 0.005,-0.12952 0.0025,-0.0621 0.0182,-0.12131 0.03201,-0.18095 0.0043,-0.0269 0.0098,-0.0549 0.0089,-0.0824 -8.2e-5,-0.002 -8.83e-4,0.004 -0.0013,0.006 -0.006,0.17794 0.295972,-0.0721 0.292527,0.0536 -5.88e-4,0.0422 1.71e-4,0.0844 5.33e-4,0.12661 9.01e-4,0.0543 0.0013,0.10824 -0.003,0.1623 -0.007,0.0436 -0.01264,0.0872 -0.01524,0.13133 -1.9e-5,0.0461 -0.0134,0.0902 -0.01875,0.13551 -0.0035,0.0368 -0.0037,0.0738 -0.0041,0.11067 0.0024,0.0546 -0.003,0.10811 -0.01253,0.16154 -0.006,0.04 -0.0072,0.0804 -0.01193,0.1205 0.0019,0.0415 -0.0069,0.0822 -0.01204,0.12302 -0.0022,0.0466 -0.0093,0.0923 -0.01698,0.13806 -0.006,0.0371 -0.0074,0.0749 -0.0084,0.11252 6.99e-4,0.0373 0.009,0.0752 0.01324,0.11317 0.0088,0.063 0.0044,0.12555 -0.0043,0.18811 -0.0053,0.02 -0.01589,0.11351 -0.02558,0.12805 -0.0036,0.005 0.0025,-0.0131 0.0038,-0.0197 -0.09936,-0.0288 -0.198031,-0.0608 -0.298094,-0.0864 -0.0029,-7.4e-4 -0.0015,0.007 -0.0035,0.009 -5.33e-4,7.3e-4 4.1e-5,-0.003 6.62e-4,-0.0169 6.8e-4,-0.0155 6.8e-4,-0.0198 10e-4,-0.0359 -0.0017,-0.058 0.0076,-0.11507 0.01411,-0.17231 0.0047,-0.0496 0.0059,-0.0995 0.0066,-0.14929 -9.19e-4,-0.0548 0.01087,-0.10833 0.01655,-0.16246 0.0028,-0.05 0.0051,-0.0996 0.01277,-0.14908 0.0071,-0.0387 0.0099,-0.0781 0.01144,-0.11747 -0.0021,-0.0502 0.0086,-0.0989 0.01614,-0.14789 0.0095,-0.0506 0.02564,-0.0991 0.03802,-0.14874 0.01486,-0.0412 0.02267,-0.0843 0.02693,-0.12821 0.0015,-0.0544 0.0076,-0.10806 0.01456,-0.16184 0.0056,-0.0533 0.0087,-0.10639 0.0175,-0.15919 0.0077,-0.0575 0.02593,-0.1113 0.04816,-0.16338 0.09917,-0.22074 0.37793,-0.0637 0.278765,0.15705 v 0 c -0.01211,0.0213 -0.01624,0.0469 -0.02031,0.0713 -0.0083,0.0478 -0.0085,0.0965 -0.01532,0.14463 -0.0066,0.0506 -0.01177,0.10063 -0.01339,0.15179 -0.0067,0.0626 -0.01646,0.12521 -0.03695,0.18425 -0.0098,0.0378 -0.02113,0.0751 -0.03064,0.11293 -0.0062,0.0391 -0.01398,0.0643 -0.01175,0.10359 -0.0023,0.0543 -0.0064,0.10852 -0.01585,0.16193 -0.007,0.0429 -0.0054,0.0867 -0.01026,0.13019 -0.0046,0.0423 -0.01358,0.0842 -0.01435,0.12664 -9.74e-4,0.0625 -0.0027,0.12516 -0.0091,0.18737 -0.0052,0.0458 -0.0137,0.091 -0.01172,0.13737 -9.2e-4,0.0379 -0.0012,0.0769 -0.008,0.11424 -0.02819,0.15444 -0.05193,0.0318 -0.315064,-0.0222 0.006,-0.0452 0.01744,-0.0887 0.02448,-0.13353 0.0045,-0.0319 0.0089,-0.058 0.0029,-0.0915 -0.0059,-0.0554 -0.01835,-0.11041 -0.01543,-0.16661 0.0016,-0.0556 0.0044,-0.11138 0.01359,-0.16622 0.0069,-0.0413 0.01282,-0.0817 0.01487,-0.12384 0.0056,-0.0426 0.01278,-0.0833 0.01253,-0.12666 0.0043,-0.0127 0.001,-0.002 0.0027,-0.0306 0.002,-0.0351 0.0055,-0.0701 0.01159,-0.10469 0.0017,-0.009 0.0013,-0.0195 0.0052,-0.0279 4.05e-4,-7.4e-4 0.001,0.004 0.0011,0.003 0.0012,-0.0238 -9.93e-4,-0.0478 1.71e-4,-0.0715 5.15e-4,-0.0521 0.0012,-0.10437 0.0071,-0.15615 0.005,-0.038 0.01463,-0.0744 0.01638,-0.11028 0.0031,-0.0498 0.0081,-0.0993 0.01666,-0.14833 0.0087,-0.0154 -0.0031,-0.095 8.83e-4,-0.11785 -4.41e-4,-0.0496 -0.0015,-0.0992 -1.24e-4,-0.14883 8.09e-4,-0.0143 0.0027,-0.10673 0.01524,-0.11064 0.234334,-0.0733 0.283986,-0.13856 0.314533,0.0433 0.003,0.0666 -0.0013,0.13273 -0.01643,0.19755 -0.0077,0.0327 -0.01709,0.0651 -0.02186,0.0984 -8.09e-4,0.0504 -0.0022,0.10072 -0.006,0.15092 -0.0028,0.0403 -0.0066,0.0767 0.0032,0.1166 0.0044,0.0584 0.0039,0.11693 0.0032,0.17557 -0.001,0.0581 -0.003,0.11639 -0.01341,0.1735 -0.01047,0.0524 -0.02533,0.10324 -0.03772,0.15503 -0.0085,0.03 -0.01531,0.0566 -0.01137,0.0892 -8.2e-5,0.0508 -2.39e-4,0.10161 2.02e-4,0.15241 5.33e-4,0.0404 9.56e-4,0.081 0.0064,0.12112 0.0029,0.0188 0.0067,0.0369 0.01103,0.0554 0.0024,0.01 0.0163,0.0301 0.0071,0.0298 -0.314124,-0.009 -0.250753,-0.14655 -0.302694,0.0414 4.05e-4,0.006 0.0021,0.024 0.0012,0.0181 -0.006,-0.0424 -0.0019,-0.0855 -0.0112,-0.12754 -0.0042,-0.0575 -0.0039,-0.11507 -6.25e-4,-0.17272 0.0035,-0.0535 0.0094,-0.10681 0.02035,-0.15916 0.01187,-0.0547 0.0079,-0.1137 0.01947,-0.16871 0.0094,-0.0897 0.0085,-0.18062 0.0182,-0.27039 0.01998,-0.24608 0.330749,-0.21445 0.310772,0.0317 z"
       id="path3757" />
    <path
       inkscape:export-ydpi="17.531469"
       inkscape:export-xdpi="17.531469"
       style="stroke-width:0.0435874"
       inkscape:connector-curvature="0"
       d="m 94.146757,160.45328 c -0.0049,0.0962 -0.01833,0.19139 -0.0291,0.28689 -0.0082,0.0426 -0.01422,0.0864 -0.02594,0.12818 -0.0027,0.009 0,0.0281 -0.0089,0.0282 -0.09964,5.5e-4 -0.19865,-0.0178 -0.297976,-0.0267 -0.01381,-0.0652 -0.01116,-0.13241 -0.01054,-0.19886 5.51e-4,-0.048 8.46e-4,-0.096 9.93e-4,-0.14396 -0.0095,-0.0395 -0.01271,-0.0821 -0.01623,-0.12304 -0.0035,-0.0423 -0.0047,-0.0845 -9.19e-4,-0.12685 0.0035,-0.0389 0.0064,-0.0211 0.0034,-0.0367 -0.0042,-0.0509 0.003,-0.10159 0.0081,-0.15206 0.0024,-0.0596 0.02157,-0.11508 0.03678,-0.1714 0.0082,-0.0388 0.0149,-0.0777 0.02278,-0.11661 0.006,-0.0313 0.007,-0.0633 0.0079,-0.0952 0.006,-0.0518 0.02875,-0.18288 0.0956,-0.17882 0.225791,0.0137 0.202674,0.042 0.233443,0.16009 0.01392,0.0548 0.01961,0.11135 0.02302,0.16799 -7.36e-4,0.0615 -0.01072,0.12207 -0.01517,0.18327 -0.0029,0.0443 -0.0032,0.0887 -0.0035,0.13305 0.0026,0.055 -0.0028,0.10884 -0.01248,0.16263 -0.0057,0.0326 -0.0067,0.0658 -0.0076,0.0989 -0.0058,0.0256 -0.0044,0.0447 -0.0039,0.0692 0.0042,0.24705 -0.307795,0.25371 -0.311997,0.007 v 0 c -4.78e-4,-0.03 -4.78e-4,-0.0596 0.003,-0.0894 8.3e-5,-7.3e-4 7.36e-4,0.001 9.75e-4,0.002 0.0015,-0.0524 0.0042,-0.10496 0.01361,-0.15649 0.0017,-0.009 0.0012,-0.0194 0.0052,-0.0277 4.78e-4,-7.4e-4 9.74e-4,0.004 9.74e-4,0.003 0.0012,-0.0237 -9.74e-4,-0.0476 8.3e-5,-0.0713 2.39e-4,-0.0532 9.74e-4,-0.10645 0.0045,-0.15953 0.0032,-0.0428 0.0068,-0.0943 0.01475,-0.13175 -0.0019,-0.0341 -0.0046,-0.0683 -0.01332,-0.10131 -0.0022,-0.009 -0.005,-0.0186 -0.0064,-0.0281 -4.78e-4,-0.003 7.35e-4,0.008 0.0036,0.009 0.06998,0.0293 0.137443,0.0823 0.212153,0.081 0.03372,-5.5e-4 0.07683,-0.0763 0.07513,-0.12066 -0.0017,0.0538 -0.0047,0.10775 -0.01548,0.1604 -0.0096,0.0473 -0.0175,0.095 -0.0288,0.14186 -0.0099,0.0358 -0.02379,0.0703 -0.02501,0.10817 -0.0044,0.0429 -0.0106,0.0841 -0.0064,0.12749 -0.0024,0.0404 -0.0089,0.0755 -0.0036,0.11592 0.0043,0.0526 0.01485,0.10422 0.0176,0.15704 -1.71e-4,0.0488 -4.79e-4,0.0976 -9.75e-4,0.14638 -2.39e-4,0.0301 -4.78e-4,0.0602 -1.24e-4,0.0903 4.1e-5,0.004 0.0033,0.0101 1.7e-4,0.0111 -0.0031,0.001 -0.0024,-0.007 -0.0035,-0.01 -0.323021,0.002 -0.310537,0.10552 -0.274759,-0.0698 0.01035,-0.0914 0.02334,-0.18252 0.02791,-0.27465 0.01998,-0.24608 0.330747,-0.21444 0.310771,0.0316 z"
       id="path3759" />
    <path
       inkscape:export-ydpi="17.531469"
       inkscape:export-xdpi="17.531469"
       style="stroke-width:0.0435874"
       inkscape:connector-curvature="0"
       d="m 84.451633,156.70695 c 0.05064,0.0121 0.102629,0.03 0.154967,0.0243 0.0219,-0.006 0.04079,-0.0193 0.06024,-0.0319 0.02399,-0.0136 0.04484,-0.0296 0.06107,-0.0532 0.01647,-0.023 0.02755,-0.0499 0.04075,-0.0754 0.01257,-0.0259 0.02713,-0.0512 0.03431,-0.0798 0.0046,-0.0248 0.0045,-0.0504 0.005,-0.0757 0.0027,-0.0381 0.0096,-0.0755 0.01247,-0.11353 -0.0021,-0.007 -0.01009,-0.0171 -0.01505,-0.0268 -0.0098,-0.0149 -0.01952,-0.0293 -0.03182,-0.0416 -0.01894,-0.0187 -0.04037,-0.0341 -0.06136,-0.0497 -0.01731,-0.008 -0.03526,-0.0218 -0.05396,-0.0248 -0.01583,-0.004 -0.01528,-1.8e-4 -0.03069,0.005 0.02825,-0.016 -0.01745,0.0241 -0.02041,0.0272 -0.01812,0.0165 -0.03117,0.0344 -0.04012,0.0581 -0.0145,0.0315 -0.02348,0.0656 -0.03056,0.1 -0.0072,0.0419 -0.0166,0.0832 -0.02753,0.12406 -0.007,0.0301 -0.01005,0.0611 -0.01605,0.0915 -0.0045,0.0197 -0.0069,0.0471 -0.0065,0.0629 -0.0042,-0.0143 0.01148,0.0832 0.0097,0.0619 -6.25e-4,-0.01 -0.01455,-0.0214 0.0036,-0.002 0.0019,0.002 -0.0031,-0.005 -0.005,-0.007 -0.0048,-0.003 0.02147,-1.8e-4 0.01611,5e-5 -0.09399,0.007 -0.01587,-0.0468 -0.07419,0.21777 -0.01046,0.0217 0.01707,0.005 0.01957,0.0128 1.23e-4,1.8e-4 -0.0023,0 -0.01162,-1.9e-4 -0.01003,-1.8e-4 -0.01334,-1.8e-4 -0.02371,-1.8e-4 -0.06114,0.001 -0.100842,-0.0158 -0.145977,-0.0631 -0.02742,-0.0374 -0.04587,-0.0813 -0.05867,-0.12718 -0.01146,-0.048 -0.0123,-0.0967 -0.0061,-0.14555 0.0048,-0.0394 0.0078,-0.0787 0.0146,-0.11773 0.0051,-0.0366 0.01365,-0.0724 0.01911,-0.10893 0.0057,-0.0385 0.01271,-0.077 0.02093,-0.115 0.01495,-0.0632 0.05394,-0.10679 0.09816,-0.14595 0.01797,-0.0146 0.03051,-0.0362 0.04785,-0.0516 0.0095,-0.008 0.01983,-0.0156 0.02975,-0.0235 0.05369,-0.0354 0.112601,-0.0365 0.172055,-0.0251 0.04106,0.009 0.07817,0.0319 0.115622,0.052 0.04292,0.0189 0.07758,0.0497 0.107441,0.0885 0.02134,0.029 0.03496,0.0631 0.04691,0.0979 0.0086,0.0249 0.0033,0.0144 0.0094,0.0259 0.01587,0.0367 0.02884,0.0742 0.03787,0.11368 0.0146,0.0412 0.01503,0.0853 0.01367,0.12892 5.88e-4,0.051 -0.01578,0.0972 -0.033,0.14329 -0.01925,0.049 -0.04478,0.0926 -0.07763,0.13135 -0.03199,0.0327 -0.0699,0.0551 -0.107812,0.0775 -0.02749,0.0192 -0.0544,0.0397 -0.08706,0.0467 -0.01419,0.003 -0.02881,0.002 -0.04322,0.004 -0.06858,-0.007 -0.113317,-0.0557 -0.155855,-0.11067 -0.03199,-0.0455 -0.05098,-0.0984 -0.06272,-0.15427 -0.01255,-0.064 -0.0015,-0.1279 0.01312,-0.18998 0.01385,-0.0579 0.0292,-0.11564 0.04861,-0.17149 0.0072,-0.0131 0.01259,-0.0276 0.02159,-0.0392 0.02457,-0.0316 0.06973,-0.0688 0.11133,-0.0555 0.03636,0.0116 0.06756,0.0412 0.09328,0.0723 0.01828,0.0221 0.01355,0.0747 0.01306,0.10179 -0.0058,0.0504 -0.01104,0.10087 -0.01415,0.15159 -0.0038,0.0353 0.0062,0.0257 -0.003,0.003 -0.0069,-0.0171 -0.01031,-0.0186 -0.02169,-0.0306 -0.01783,-0.0115 -0.02367,-0.014 -0.04218,-0.0141 -0.0035,-1e-5 -0.007,0.002 -0.01032,0.001 -9.01e-4,-1.8e-4 3.86e-4,-0.002 5.88e-4,-0.003 0.01229,-0.0204 0.0249,-0.047 0.02342,-0.0723 2.39e-4,-0.025 -0.0078,-0.0138 -1.4e-4,-7.3e-4 0.0029,0.005 0.0067,0.009 0.01,0.0134 0.0084,0.009 -0.0013,0.001 -0.0049,0.004 -0.0054,0.004 0.0073,5.5e-4 0.01317,0.004 0.01045,-0.003 0.0017,0.002 0.0055,0.004 8.09e-4,1.8e-4 0.0019,-10e-4 0.0026,-7.4e-4 0.0033,0.004 -4.78e-4,0.0102 -0.0012,0.0152 -0.0063,0.0225 0.0051,0.0209 0.0026,0.0141 -0.0018,-0.005 -0.0045,-0.009 -0.0067,-0.014 -0.02019,-0.026 -0.04892,-0.0269 -0.07464,-0.0115 6.9e-5,-5.5e-4 5.88e-4,-0.002 2.02e-4,-0.002 -0.01694,0.0183 -0.01251,0.0239 -0.01687,0.0483 -0.003,0.007 -0.0025,0.005 0.0093,0.0174 0.01797,0.0194 0.0376,0.0188 0.05976,0.0121 0.0027,0.0166 0.01132,-0.0141 0.0159,-0.01 9.01e-4,7.3e-4 -0.0018,0.0192 0.0042,0.0126 -0.0032,-0.0431 -0.04341,-0.0625 -0.07693,-0.0638 -0.02238,0.005 -0.01396,0.005 -0.02497,0.004 0.0041,-0.002 0.02881,-0.062 0.01826,-0.0449 -0.0042,0.0425 0.0219,0.0765 0.05859,0.0809 0.0239,-0.007 0.0061,0.009 0.0026,0.0216 -0.0019,0.007 -0.0014,0.0146 -0.0024,0.0218 5.15e-4,0.0218 0.01706,0.0439 -1.27e-4,0.003 -0.0107,-0.0103 -0.0071,-0.009 0.0043,-0.0128 0.0053,-0.002 0.01004,-0.005 0.01505,-0.007 0.01962,-0.0105 0.02789,-0.0172 0.03389,-0.0395 -0.011,0.005 -0.004,0.0271 -0.0073,0.0323 -0.0018,0.003 -0.0053,-0.004 -0.0079,-0.006 -0.02095,-0.0133 -0.04232,-0.026 -0.06629,-0.03 0.04626,0.0135 0.03383,-0.0107 0.02204,0.0266 -0.0072,0.025 -0.0073,0.0495 -0.0056,0.0752 0.0046,0.0228 0.01384,0.0438 0.02596,0.0628 -0.001,0.002 0.03515,0.0301 0.02752,0.0186 0.01644,0.001 0.02886,-0.008 0.04378,-0.0148 0.01683,-0.0102 0.03129,-0.0233 0.03595,-0.0449 -0.0082,-0.0223 -0.01833,-0.0443 -0.02797,-0.0662 -0.01355,-0.0234 -0.03412,-0.0705 -0.05624,-0.0839 -0.01084,-0.007 -0.01859,-0.004 -0.02824,-0.003 0.0227,1.9e-4 -8.09e-4,0.0246 -0.0073,0.0355 -0.01981,0.033 -0.02733,0.0722 -0.03563,0.11031 -0.0087,0.0416 -4.78e-4,0.0833 0.0089,0.12378 0.01002,0.0374 0.01669,0.078 0.03855,0.10939 0.0014,-0.004 -0.0042,-0.006 -0.0039,-0.0102 3.6e-5,-5.5e-4 0.02772,0.004 0.02978,0.004 0.01,-0.003 0.01886,-0.004 0.02515,-0.0146 0.03245,-0.0276 0.05854,-0.0634 0.08482,-0.098 0.01753,-0.0245 0.03105,-0.0516 0.03726,-0.0822 0.0036,-0.0189 0.0037,-0.0374 0.001,-0.0543 -0.0032,-0.0309 -0.0094,-0.0609 -0.01541,-0.0912 -0.0066,-0.0223 -0.01302,-0.0448 -0.02412,-0.065 -0.01238,-0.0323 -0.03162,-0.0562 -0.05254,-0.0812 -0.01243,-0.0159 -0.02769,-0.0304 -0.04423,-0.0398 -0.01256,-0.0116 -0.01902,-0.0136 -0.03213,-0.0149 -0.0028,-7.4e-4 -0.05243,-0.003 -0.03901,4e-5 -0.0096,0.008 -0.01751,0.0221 -0.02824,0.0358 -0.01333,0.0213 -0.02817,0.0424 -0.03651,0.0669 -0.01384,0.0283 -0.0238,0.0585 -0.03575,0.0877 -0.0096,0.0253 -0.01568,0.0523 -0.02109,0.0791 -0.0063,0.036 -0.01461,0.0715 -0.01827,0.10808 -0.0024,0.0404 -0.0032,0.0804 -0.0097,0.12034 -0.0056,0.0304 -0.0028,0.0186 6.25e-4,0.0536 0.0011,0.0125 0.0019,0.0281 0.0112,0.0359 -0.0049,-0.0161 -0.01899,-0.0172 0.01119,-0.009 0.02485,0.004 0.05302,0.0158 0.07819,0.01 0.01348,-0.007 0.03115,-0.0144 0.04526,-0.0245 0.02878,-0.0219 0.06359,-0.0322 0.09292,-0.0527 0.01751,-0.008 0.02794,-0.0225 0.03915,-0.0384 0.0096,-0.0221 0.01901,-0.0446 0.02772,-0.0673 0.01306,-0.0272 0.02139,-0.0564 0.0287,-0.086 0.0055,-0.0336 0.01428,-0.0664 0.01972,-0.1001 0.0051,-0.0233 0.0021,-0.0379 -8.46e-4,-0.0597 -1.71e-4,7.3e-4 -2.94e-4,0.003 -5.33e-4,0.002 -0.0062,-0.0179 -0.0092,-0.0245 -0.01664,-0.0379 2.76e-4,7.3e-4 0.0017,0.002 8.27e-4,0.003 -4.1e-5,1e-5 -0.0421,-0.0402 -0.04465,-0.0426 -0.01401,-0.007 -0.03812,-0.0532 -0.05467,-0.051 -0.02436,-0.01 -0.04779,-0.023 -0.0731,-0.0296 -0.0088,-10e-4 -0.01785,-0.004 -0.02677,-0.004 -8.09e-4,4e-5 0.0014,7.4e-4 0.0021,0.001 -0.0024,5.5e-4 -0.0048,7.3e-4 -0.0071,0.001 -8.6e-5,1.8e-4 -1.71e-4,7.3e-4 -2.76e-4,0.001 -0.01952,0.0107 -0.04008,0.0244 -0.05905,0.0383 -0.02136,0.0154 -0.03364,0.0392 -0.04501,0.0638 -0.01715,0.0405 -0.02886,0.0834 -0.04126,0.12591 -0.0074,0.0245 -0.0094,0.0501 -0.01049,0.0757 -3.13e-4,0.0145 0.0057,0.0378 0.009,0.0625 0.0014,0.0294 0.0043,0.0517 0.0094,0.0777 0.0072,0.015 0.01527,0.0305 0.02471,0.0445 0.0162,0.0228 0.03331,0.045 0.05518,0.0611 0.07138,0.06 0.04689,0.0223 -0.07631,0.23408 -0.0035,0.006 -0.06522,-0.0272 -0.06949,-0.0294 -0.04275,-0.021 -0.07758,-0.0529 -0.10875,-0.0912 -0.03049,-0.0462 -0.04823,-0.10077 -0.06335,-0.1552 -0.01051,-0.0481 -0.01567,-0.0976 -0.02167,-0.14662 -0.004,-0.0515 -0.01264,-0.10184 -0.01349,-0.15357 -0.0013,-0.0571 0.01232,-0.11183 0.0308,-0.16443 0.01915,-0.0478 0.0457,-0.0916 0.07375,-0.13336 0.01862,-0.0282 0.03696,-0.0567 0.05357,-0.0865 0.02119,-0.0381 0.05164,-0.067 0.07971,-0.0982 0.03469,-0.0372 0.07676,-0.0614 0.12193,-0.0781 0.05696,-0.0164 0.111207,-1.4e-4 0.165436,0.019 0.03973,0.0147 0.07768,0.0343 0.115793,0.0534 0.04738,0.0223 0.08778,0.055 0.124192,0.0952 0.03307,0.0372 0.06262,0.078 0.0872,0.12269 0.02568,0.0488 0.03852,0.10307 0.04559,0.15869 -1.9e-5,0.03 0.0066,0.0579 0.01129,0.0872 0.0063,0.042 0.0073,0.0842 0.0047,0.12656 -0.0024,0.0582 -0.03196,0.10322 -0.05669,0.15139 -0.02179,0.0402 -0.04296,0.0803 -0.06903,0.1173 -0.03279,0.0408 -0.07315,0.0716 -0.114659,0.10005 -0.0366,0.0256 -0.07305,0.0518 -0.111225,0.0744 -0.0293,0.016 -0.06086,0.0251 -0.09312,0.0294 -0.0268,0.004 -0.01214,-1.4e-4 -0.02512,0.003 -0.02713,0.004 -0.05221,0.012 -0.07861,0.019 -0.04813,0.014 -0.09568,0.0118 -0.143644,-7.3e-4 -0.06703,-0.025 -0.103347,-0.0841 -0.130074,-0.15353 -0.01221,-0.0313 -0.01665,-0.0638 -0.0207,-0.0973 -0.01491,-0.17393 0.204729,-0.19755 0.219644,-0.0236 v 0 c -0.0044,0.002 0.0047,0.022 0.0048,0.0259 0.01142,0.0338 0.0063,0.0124 -0.01334,0.0109 -0.01576,7.3e-4 0.02781,0.004 0.03337,-0.002 0.03054,-0.008 0.0607,-0.017 0.09178,-0.0219 0.01794,-0.003 0.03633,-0.004 0.0539,-0.009 0.034,-0.0184 0.06466,-0.0444 0.09723,-0.0656 0.0209,-0.0143 0.04184,-0.0281 0.05942,-0.0463 0.02222,-0.0246 0.03097,-0.0609 0.05041,-0.0878 0.0046,-0.008 0.0091,-0.0171 0.01393,-0.0254 0.0056,-0.01 0.01188,-0.012 0.0123,-0.0242 7.53e-4,-0.0168 9.8e-5,-0.0394 -0.0026,-0.0584 -0.0049,-0.0322 -0.01235,-0.0639 -0.0126,-0.0967 -0.0024,-0.023 -0.0065,-0.0455 -0.01682,-0.0658 -0.01299,-0.0294 -0.03688,-0.0523 -0.05586,-0.0767 -0.0143,-0.0206 -0.03569,-0.0303 -0.05606,-0.0416 -0.03023,-0.0153 -0.06023,-0.031 -0.09162,-0.0431 -0.0086,-0.003 -0.01698,-0.007 -0.02564,-0.01 -0.0086,-0.003 -0.01655,-0.005 -0.01622,-0.005 0.0019,-0.002 0.0051,-0.002 0.0077,-0.003 -0.01185,0.002 -0.02225,0.01 -0.03163,0.0175 -0.01662,0.0184 -0.0349,0.0348 -0.04906,0.0557 -0.0205,0.0355 -0.04184,0.0704 -0.06466,0.10412 -0.01703,0.0234 -0.03154,0.0499 -0.04439,0.0763 -0.0088,0.0215 -0.01466,0.0446 -0.01435,0.0684 -3.13e-4,0.0412 0.01005,0.0813 0.01147,0.12254 0.0044,0.0361 0.0088,0.0723 0.01417,0.1082 0.0062,0.024 0.01476,0.047 0.02275,0.0702 -0.01071,-0.006 0.0017,5.5e-4 0.0055,0.007 0.0011,0.002 -0.0068,-0.003 -0.0052,-0.002 0.01187,0.008 0.02509,0.0149 0.03732,0.0227 0.0061,0.007 -0.0052,-0.005 0.01476,0.007 0.0014,7.4e-4 -0.0043,-0.002 -0.0049,-1.7e-4 -0.07945,0.22325 -0.01905,0.27113 -0.09296,0.20903 -0.03971,-0.0332 -0.07531,-0.0714 -0.104576,-0.1165 -0.02638,-0.0417 -0.04951,-0.0862 -0.06127,-0.13599 -0.0062,-0.0316 -0.01121,-0.0633 -0.01235,-0.0958 -0.0045,-0.0369 -0.01453,-0.0733 -0.01087,-0.11093 0.0024,-0.0472 0.0076,-0.0942 0.02111,-0.13919 0.01655,-0.0565 0.03259,-0.11341 0.05686,-0.16655 0.0299,-0.0606 0.06646,-0.11582 0.119325,-0.15379 0.03851,-0.0277 0.07819,-0.0534 0.121909,-0.0695 0.04817,-0.0125 0.09619,-0.0153 0.144457,-7.3e-4 0.03461,0.0105 0.06783,0.025 0.10107,0.04 0.04315,0.0214 0.08047,0.0505 0.112315,0.0898 0.03243,0.0304 0.06622,0.06 0.09023,0.0996 0.02229,0.0402 0.04001,0.0826 0.04791,0.12946 0.0063,0.0474 0.0085,0.0947 -5.15e-4,0.14189 -0.0071,0.0413 -0.01685,0.0819 -0.02459,0.12303 -0.01043,0.0396 -0.02114,0.0794 -0.0384,0.11613 -0.01667,0.0425 -0.03317,0.0858 -0.05796,0.12328 -0.02911,0.0402 -0.0621,0.0765 -0.104015,0.0997 -0.02928,0.0176 -0.05998,0.0318 -0.08891,0.0502 -0.04555,0.0289 -0.09387,0.0517 -0.146473,0.0579 -0.04661,0.001 -0.09299,-0.004 -0.138381,-0.0163 -0.05597,-0.0147 -0.107275,-0.0362 -0.142488,-0.0907 -0.0264,-0.0453 -0.04621,-0.0949 -0.04907,-0.14974 -0.0041,-0.0422 -0.0081,-0.0849 0.002,-0.12658 0.0063,-0.0339 0.0025,-0.0693 0.0074,-0.10367 0.0051,-0.0453 0.01388,-0.0897 0.0224,-0.13438 0.0091,-0.0433 0.01938,-0.0868 0.03594,-0.12742 0.01191,-0.0276 0.02033,-0.0571 0.03411,-0.0837 0.0192,-0.0466 0.04319,-0.0903 0.07252,-0.1299 0.03744,-0.0476 0.07716,-0.0924 0.133567,-0.11033 0.04354,-0.0115 0.08659,-0.0142 0.131018,-0.007 0.03625,0.006 0.07252,0.0167 0.103068,0.0407 0.0381,0.0239 0.07384,0.0529 0.10287,0.0898 0.03284,0.0393 0.06243,0.0805 0.08379,0.12909 0.02037,0.042 0.03669,0.0861 0.04713,0.13251 0.0069,0.0353 0.01385,0.0705 0.01796,0.10635 0.0069,0.0525 0.0056,0.1049 -0.0059,0.15665 -0.0166,0.0656 -0.04306,0.12624 -0.08265,0.17864 -0.03782,0.0493 -0.07593,0.0993 -0.123295,0.13766 -0.05981,0.0449 -0.10834,0.0642 -0.181168,0.0596 -0.06947,-0.0102 -0.134684,-0.0338 -0.180128,-0.0978 -0.03502,-0.0583 -0.05733,-0.12272 -0.07165,-0.19112 -0.0172,-0.0801 -0.02714,-0.16177 -0.0089,-0.24307 0.0149,-0.066 0.03159,-0.13229 0.06692,-0.18888 0.04621,-0.0759 0.09449,-0.13069 0.179654,-0.14396 0.06989,-0.002 0.127675,0.014 0.183459,0.063 0.0449,0.0466 0.08237,0.10036 0.109788,0.16201 0.04157,0.096 0.06303,0.17476 0.02924,0.27992 -0.0062,0.0135 -0.01151,0.0277 -0.01861,0.0407 -0.03162,0.0579 -0.08012,0.10017 -0.134618,0.12812 -0.06343,0.0283 -0.122452,0.0414 -0.189992,0.022 -0.06457,-0.0258 -0.105719,-0.0563 -0.14731,-0.11826 -0.03255,-0.0563 -0.05658,-0.1173 -0.06253,-0.18481 -0.0035,-0.0748 0.0043,-0.14739 0.03544,-0.21491 0.03654,-0.0653 0.08374,-0.12676 0.155641,-0.14219 0.01893,-0.004 0.03853,-10e-4 0.05779,-0.002 0.06315,0.016 0.122815,0.0451 0.172713,0.0922 0.07027,0.079 0.09727,0.1486 0.0628,0.25972 -0.03682,0.0804 -0.08162,0.13066 -0.157196,0.16486 -0.07274,0.0282 -0.145897,0.0363 -0.216484,-0.006 -0.01227,-0.0104 -0.02609,-0.0188 -0.0368,-0.0312 -0.05501,-0.0634 -0.0673,-0.14858 -0.05672,-0.23315 0.01746,-0.0785 0.0484,-0.15556 0.111655,-0.2015 0.01457,-0.0106 0.03112,-0.0172 0.04667,-0.0259 0.04284,-0.008 0.05317,-0.0155 0.09487,-0.004 0.05134,0.0138 0.09548,0.0539 0.113511,0.11036 0.0061,0.019 0.0068,0.0395 0.01026,0.0593 -0.0012,0.0157 -0.0012,0.0316 -0.0037,0.0472 -0.01065,0.0658 -0.04615,0.12244 -0.08491,0.17128 -0.03029,0.028 -0.04715,0.0499 -0.08914,0.0585 -0.06788,0.0138 -0.122397,-0.0186 -0.158677,-0.0816 -0.0076,-0.0132 -0.01045,-0.0291 -0.01567,-0.0436 -0.0024,-0.0151 -0.006,-0.03 -0.0071,-0.0453 -0.0044,-0.0619 0.01103,-0.13135 0.04613,-0.18036 0.01052,-0.0147 0.02409,-0.0263 0.03613,-0.0395 0.01508,-0.009 0.02925,-0.0197 0.04525,-0.0259 0.0821,-0.032 0.159713,0.0141 0.202655,0.0926 0.0055,0.0139 0.01268,0.0271 0.01639,0.0418 0.01926,0.0758 0.0016,0.15015 -0.04799,0.20548 -0.01061,0.009 -0.0203,0.02 -0.03184,0.0277 -0.06454,0.0431 -0.13789,0.0298 -0.195037,-0.0204 -0.01051,-0.0135 -0.02236,-0.0259 -0.03153,-0.0406 -0.03405,-0.0547 -0.03749,-0.12569 -0.02742,-0.18905 0.01908,-0.093 0.05025,-0.1515 0.12776,-0.19658 0.01112,-0.004 0.02193,-0.01 0.03336,-0.013 0.05609,-0.0153 0.111671,-0.001 0.161613,0.029 0.01226,0.0111 0.02575,0.0207 0.03678,0.0333 0.04333,0.0496 0.05444,0.12195 0.05062,0.18827 -0.01082,0.0834 -0.03679,0.16128 -0.09023,0.22288 -0.0098,0.01 -0.01879,0.0204 -0.02935,0.029 -0.03801,0.0309 -0.08976,0.0505 -0.136968,0.0385 -0.01573,-0.004 -0.03058,-0.0115 -0.04586,-0.0172 -0.01097,-0.009 -0.02313,-0.0159 -0.03291,-0.0263 -0.04352,-0.0463 -0.05603,-0.11153 -0.05084,-0.17611 0.0032,-0.0514 0.0079,-0.10263 0.01428,-0.15364 0.0033,0.01 0.01146,0.0334 0.01259,0.0344 0.02611,0.0232 0.05352,0.0489 0.08604,0.0572 0.03521,0.009 0.07511,-0.0235 0.08636,-0.0583 -0.0082,0.0193 -0.002,0.004 -0.01181,0.0385 -0.0097,0.0346 -0.02118,0.0687 -0.0281,0.10423 -0.0059,0.0231 -0.0132,0.0482 -0.01065,0.0718 0.0027,0.017 0.008,0.0325 0.01533,0.0476 0.0025,0.003 0.02431,0.0291 0.02,0.0282 -0.0037,-7.3e-4 -0.0072,-0.003 -0.01093,-0.003 -0.006,-7.4e-4 -0.01209,-7.4e-4 -0.01813,-0.001 -0.0085,0.002 -0.01663,0.003 -0.02348,0.009 -0.0026,0.002 0.0061,-0.003 0.01477,-0.009 0.029,-0.0204 0.0069,-0.006 0.03356,-0.0229 0.01294,-0.007 0.02697,-0.0142 0.03911,-0.0232 0.0046,-0.003 0.0087,-0.008 0.01362,-0.0108 8.46e-4,-5.6e-4 -5.15e-4,0.002 -7.54e-4,0.003 0.01463,-0.0156 0.02354,-0.0348 0.03253,-0.0552 0.0073,-0.0191 0.01654,-0.0349 0.01575,-0.0563 0,-1e-5 -3.13e-4,-0.0249 0.0011,-0.0256 9.01e-4,-1.8e-4 0.0019,0.004 0.0017,0.003 -0.0028,-0.0137 -0.0087,-0.0265 -0.01077,-0.0404 -0.0025,-0.0231 -0.01566,-0.0434 -0.02273,-0.065 -0.0092,-0.023 -0.01687,-0.0467 -0.02548,-0.0698 -0.0017,-0.002 -0.0054,-0.004 -0.0052,-0.007 1.03e-4,-0.002 0.0075,0.004 0.0057,0.002 -0.01131,-0.008 -0.02279,-0.0144 -0.03504,-0.0201 -0.02102,-0.0115 -0.04184,-0.0247 -0.06398,-0.0325 -0.0089,-0.0113 -0.01972,0.006 -0.0076,-0.006 8.82e-4,-7.3e-4 -0.0049,0.002 -0.0034,-0.001 0.0013,-0.002 0.0057,-0.004 0.0038,-0.005 -2.39e-4,-1.4e-4 -0.05642,0.0661 -0.06145,0.0647 -0.0269,0.0237 -0.01506,0.0139 -0.01935,0.0105 -8.83e-4,-7.3e-4 -0.0012,0.002 -0.0018,0.003 -0.0084,0.0308 -0.01169,0.0638 -0.01718,0.0953 -0.006,0.0385 -0.01444,0.0763 -0.02009,0.11488 -0.0063,0.0353 -0.0078,0.0712 -0.0129,0.10676 -0.0017,0.0112 -0.003,0.0241 -1.44e-4,0.04 0.0011,0.0107 0.02513,0.0481 0.0053,0.0242 -0.02695,-0.0194 -0.04876,-0.0131 -0.01104,-0.0121 0.04826,5.5e-4 0.09589,0.002 0.138722,0.0309 -0.01083,0.0763 -0.01024,0.15578 -0.0325,0.22892 -0.0053,0.0175 -0.111169,-0.0105 -0.120722,-0.0156 -0.04885,-0.0262 -0.08847,-0.0634 -0.113545,-0.1183 -0.01623,-0.0464 -0.02487,-0.0941 -0.02797,-0.14384 -0.0015,-0.0453 0.0016,-0.0902 0.01112,-0.13443 0.0072,-0.0362 0.01,-0.0734 0.02013,-0.109 0.0097,-0.0363 0.01794,-0.0731 0.02424,-0.11035 0.01106,-0.0509 0.02461,-0.1016 0.04582,-0.14853 0.02212,-0.0504 0.04978,-0.0957 0.08837,-0.13229 0.0335,-0.0352 0.06819,-0.0699 0.113088,-0.0854 0.051,-0.0154 0.102365,-0.0205 0.153644,-0.003 0.03869,0.0143 0.07716,0.0313 0.111832,0.0555 0.03088,0.0231 0.06189,0.0464 0.08936,0.0745 0.02803,0.0297 0.0524,0.0631 0.07297,0.0997 0.02733,0.0535 0.0472,0.10838 0.04333,0.17137 -0.0026,0.0325 -0.0062,0.0649 -0.01166,0.097 -9.75e-4,0.0493 -0.0026,0.0991 -0.01569,0.14666 -0.0136,0.045 -0.032,0.0876 -0.05378,0.12838 -0.01895,0.0359 -0.03506,0.074 -0.05953,0.1058 -0.0344,0.0468 -0.075,0.0846 -0.123273,0.11246 -0.04974,0.0315 -0.100832,0.0594 -0.158937,0.0642 -0.0759,0.003 -0.150518,-0.0105 -0.223779,-0.0327 -0.150529,-0.046 -0.09247,-0.28437 0.05806,-0.23839 z"
       id="path3761" />
    <path
       inkscape:export-ydpi="17.531469"
       inkscape:export-xdpi="17.531469"
       inkscape:connector-curvature="0"
       id="path3763"
       d="m 93.36366,159.06206 c -0.06865,-0.0102 -0.255884,-0.0488 -0.416071,-0.0859 -0.569345,-0.13185 -0.905333,-0.16597 -1.634509,-0.16597 -0.510072,0 -1.001967,-0.0342 -1.590699,-0.1106 -0.468757,-0.0608 -0.925647,-0.11128 -1.01531,-0.1121 -0.08966,-7.3e-4 -0.259841,-0.0151 -0.378174,-0.0316 l -0.215149,-0.0301 0.120584,-0.56835 c 0.231652,-1.09187 0.578108,-1.82941 1.209727,-2.57527 0.851039,-1.00498 1.483699,-1.4105 2.425871,-1.55497 0.288912,-0.0443 0.371006,-0.0392 0.648835,0.0404 0.449156,0.12864 0.618734,0.23918 1.004884,0.65502 0.386139,0.41583 0.574138,0.7358 0.739156,1.25801 0.06325,0.20015 0.197769,0.54958 0.298938,0.77651 0.101169,0.22693 0.236032,0.58923 0.299694,0.80512 0.06367,0.21588 0.22356,0.6824 0.355317,1.03671 0.13176,0.35431 0.235291,0.6442 0.230066,0.6442 -0.0052,0 -0.447986,0.008 -0.983918,0.0187 -0.535932,0.0103 -1.030591,0.0104 -1.099242,1.8e-4 z"
       style="fill:#ffffff;stroke-width:0.04403" />
    <path
       inkscape:export-ydpi="17.531469"
       inkscape:export-xdpi="17.531469"
       inkscape:connector-curvature="0"
       id="path3765"
       d="m 86.248849,158.68999 c -0.228839,-0.0338 -0.640749,-0.0601 -0.915356,-0.0586 -0.274606,0.002 -0.674301,-0.0128 -0.88821,-0.0321 l -0.388926,-0.0349 -0.315452,-0.26783 -0.315452,-0.26784 -0.01,-0.57614 -0.01,-0.57614 0.199905,-0.53582 c 0.109948,-0.29471 0.221908,-0.61341 0.2488,-0.70823 0.08907,-0.31406 0.522086,-0.643 0.846443,-0.643 0.361675,0 0.918597,0.43124 1.271154,0.98428 0.129475,0.2031 0.343899,0.52076 0.476496,0.70592 0.132597,0.18515 0.298757,0.47293 0.369244,0.6395 0.07049,0.16657 0.20072,0.46698 0.289405,0.66758 0.08868,0.2006 0.161245,0.39198 0.161245,0.42529 0,0.0333 0.02859,0.0871 0.06352,0.1196 0.05411,0.0503 0.03098,0.0716 -0.156027,0.14397 -0.251838,0.0974 -0.35376,0.099 -0.926869,0.0144 z m -1.451888,-1.69236 c 0.07105,-0.0485 0.169835,-0.16188 0.219525,-0.25192 0.22133,-0.40104 -0.118919,-0.96319 -0.515517,-0.85172 -0.05742,0.0161 -0.162089,0.118 -0.232596,0.22637 -0.114546,0.17605 -0.126445,0.22495 -0.11175,0.45925 0.02335,0.37224 0.112324,0.50662 0.335286,0.5064 0.09909,-9e-5 0.23227,-0.0387 0.305052,-0.0884 z"
       style="fill:#ffffff;stroke-width:0.04403" />
  </g>
</svg>
